<?xml version="1.0" encoding="utf-8"?>
<!-- Generator: Adobe Illustrator 16.0.0, SVG Export Plug-In . SVG Version: 6.00 Build 0)  -->
<!DOCTYPE svg PUBLIC "-//W3C//DTD SVG 1.1//EN" "http://www.w3.org/Graphics/SVG/1.1/DTD/svg11.dtd">
<svg version="1.1" id="Layer_1" xmlns="http://www.w3.org/2000/svg" xmlns:xlink="http://www.w3.org/1999/xlink" x="0px" y="0px"
	 width="2016px" height="1211.438px" viewBox="16.5 418.581 2016 1211.438" enable-background="new 16.5 418.581 2016 1211.438"
	 xml:space="preserve">
<g id="Layer_x0020_1">
	<g id="_233009080">
		<rect id="_233013736" x="16.5" y="418.581" fill="#EEEEEE" width="2015.999" height="1211.438"/>
		<polygon id="_233013136" fill="#BE2033" points="2032.5,511.761 823.835,511.761 823.835,418.581 2032.5,418.581 		"/>
		<polygon id="_233013616" fill="#BE2033" points="2032.5,694.928 823.835,694.928 823.835,601.747 2032.5,601.747 		"/>
		<polygon id="_233013544" fill="#BE2033" points="2032.5,878.625 823.835,878.625 823.835,785.441 2032.5,785.441 		"/>
		<polygon id="_233013640" fill="#BE2033" points="2032.5,1059.122 823.835,1059.122 823.835,965.941 2032.5,965.941 		"/>
		<polygon id="_233012896" fill="#BE2033" points="2032.5,1239.616 16.5,1239.616 16.5,1146.429 2032.5,1146.429 		"/>
		<polygon id="_233012272" fill="#BE2033" points="2032.5,1432.895 16.5,1432.895 16.5,1339.721 2032.5,1339.721 		"/>
		<polygon id="_233012728" fill="#BE2033" points="2032.5,1630.02 16.5,1630.02 16.5,1536.845 2032.5,1536.845 		"/>
		<polygon id="_233012464" fill="#212F64" points="942.869,1059.135 16.5,1059.135 16.5,418.581 942.869,418.581 		"/>
		<polygon id="_233012416" fill="#FFFFFF" points="58.441,472.808 85.417,472.808 95.302,444.493 106.251,472.808 132.968,472.808 
			112.662,491.371 120.144,519.552 95.703,503.791 72.866,519.552 79.54,491.371 		"/>
		<polygon id="_233012584" fill="#FFFFFF" points="210.163,472.808 237.144,472.808 247.024,444.493 257.978,472.808 
			284.69,472.808 264.39,491.371 271.87,519.552 247.425,503.791 224.586,519.552 231.263,491.371 		"/>
		<polygon id="_233012512" fill="#FFFFFF" points="367.227,472.808 394.21,472.808 404.091,444.493 415.042,472.808 
			441.755,472.808 421.453,491.371 428.932,519.552 404.492,503.791 381.653,519.552 388.332,491.371 		"/>
		<polygon id="_233012680" fill="#FFFFFF" points="518.954,472.808 545.934,472.808 555.814,444.493 566.768,472.808 
			593.474,472.808 573.179,491.371 580.653,519.552 556.214,503.791 533.376,519.552 540.057,491.371 		"/>
		<polygon id="_233012824" fill="#FFFFFF" points="671.746,472.808 698.726,472.808 708.611,444.493 719.56,472.808 
			746.278,472.808 725.971,491.371 733.452,519.552 709.012,503.791 686.17,519.552 692.845,491.371 		"/>
		<polygon id="_233012488" fill="#FFFFFF" points="827.744,472.808 854.718,472.808 864.603,444.493 875.555,472.808 
			902.271,472.808 881.965,491.371 889.448,519.552 865.005,503.791 842.17,519.552 848.844,491.371 		"/>
		<polygon id="_233011528" fill="#FFFFFF" points="134.299,540.387 161.276,540.387 171.162,512.071 182.111,540.387 
			208.827,540.387 188.525,558.952 196.005,587.135 171.562,571.375 148.723,587.135 155.399,558.952 		"/>
		<polygon id="_233011840" fill="#FFFFFF" points="286.026,540.387 313.002,540.387 322.887,512.071 333.838,540.387 
			360.551,540.387 340.249,558.952 347.731,587.135 323.289,571.375 300.45,587.135 307.125,558.952 		"/>
		<polygon id="_233012056" fill="#FFFFFF" points="443.091,540.387 470.07,540.387 479.956,512.071 490.904,540.387 
			517.618,540.387 497.314,558.952 504.796,587.135 480.354,571.375 457.515,587.135 464.189,558.952 		"/>
		<polygon id="_233011792" fill="#FFFFFF" points="594.813,540.387 621.793,540.387 631.679,512.071 642.626,540.387 
			669.34,540.387 649.039,558.952 656.518,587.135 632.079,571.375 609.24,587.135 615.92,558.952 		"/>
		<polygon id="_233011624" fill="#FFFFFF" points="747.611,540.387 774.583,540.387 784.469,512.071 795.418,540.387 
			822.132,540.387 801.832,558.952 809.312,587.135 784.871,571.375 762.031,587.135 768.71,558.952 		"/>
		<polygon id="_233011888" fill="#FFFFFF" points="58.441,599.957 85.417,599.957 95.302,571.639 106.251,599.957 132.968,599.957 
			112.662,618.52 120.144,646.698 95.703,630.939 72.866,646.698 79.54,618.52 		"/>
		<polygon id="_233011720" fill="#FFFFFF" points="210.163,599.957 237.144,599.957 247.024,571.639 257.978,599.957 
			284.69,599.957 264.39,618.52 271.87,646.698 247.425,630.939 224.586,646.698 231.263,618.52 		"/>
		<polygon id="_233011648" fill="#FFFFFF" points="367.227,599.957 394.21,599.957 404.091,571.639 415.042,599.957 
			441.755,599.957 421.453,618.52 428.932,646.698 404.492,630.939 381.653,646.698 388.332,618.52 		"/>
		<polygon id="_233011480" fill="#FFFFFF" points="518.954,599.957 545.934,599.957 555.814,571.639 566.768,599.957 
			593.474,599.957 573.179,618.52 580.653,646.698 556.214,630.939 533.376,646.698 540.057,618.52 		"/>
		<polygon id="_233012128" fill="#FFFFFF" points="671.746,599.957 698.726,599.957 708.611,571.639 719.56,599.957 
			746.278,599.957 725.971,618.52 733.452,646.698 709.012,630.939 686.17,646.698 692.845,618.52 		"/>
		<polygon id="_233012104" fill="#FFFFFF" points="827.744,599.957 854.718,599.957 864.603,571.639 875.555,599.957 
			902.271,599.957 881.965,618.52 889.448,646.698 865.005,630.939 842.17,646.698 848.844,618.52 		"/>
		<polygon id="_233011096" fill="#FFFFFF" points="134.299,667.537 161.276,667.537 171.162,639.222 182.111,667.537 
			208.827,667.537 188.525,686.101 196.005,714.281 171.562,698.523 148.723,714.281 155.399,686.101 		"/>
		<polygon id="_233010712" fill="#FFFFFF" points="286.026,667.537 313.002,667.537 322.887,639.222 333.838,667.537 
			360.551,667.537 340.249,686.101 347.731,714.281 323.289,698.523 300.45,714.281 307.125,686.101 		"/>
		<polygon id="_233010904" fill="#FFFFFF" points="443.091,667.537 470.07,667.537 479.956,639.222 490.904,667.537 
			517.618,667.537 497.314,686.101 504.796,714.281 480.354,698.523 457.515,714.281 464.189,686.101 		"/>
		<polygon id="_233010736" fill="#FFFFFF" points="594.813,667.537 621.793,667.537 631.679,639.222 642.626,667.537 
			669.34,667.537 649.039,686.101 656.518,714.281 632.079,698.523 609.24,714.281 615.92,686.101 		"/>
		<polygon id="_233011264" fill="#FFFFFF" points="747.611,667.537 774.583,667.537 784.469,639.222 795.418,667.537 
			822.132,667.537 801.832,686.101 809.312,714.281 784.871,698.523 762.031,714.281 768.71,686.101 		"/>
		<polygon id="_233011456" fill="#FFFFFF" points="58.441,729.244 85.417,729.244 95.302,700.926 106.251,729.244 132.968,729.244 
			112.662,747.806 120.144,775.985 95.703,760.226 72.866,775.985 79.54,747.806 		"/>
		<polygon id="_233011312" fill="#FFFFFF" points="210.163,729.244 237.144,729.244 247.024,700.926 257.978,729.244 
			284.69,729.244 264.39,747.806 271.87,775.985 247.425,760.226 224.586,775.985 231.263,747.806 		"/>
		<polygon id="_233011408" fill="#FFFFFF" points="367.227,729.244 394.21,729.244 404.091,700.926 415.042,729.244 
			441.755,729.244 421.453,747.806 428.932,775.985 404.492,760.226 381.653,775.985 388.332,747.806 		"/>
		<polygon id="_233011144" fill="#FFFFFF" points="518.954,729.244 545.934,729.244 555.814,700.926 566.768,729.244 
			593.474,729.244 573.179,747.806 580.653,775.985 556.214,760.226 533.376,775.985 540.057,747.806 		"/>
		<polygon id="_233011048" fill="#FFFFFF" points="671.746,729.244 698.726,729.244 708.611,700.926 719.56,729.244 
			746.278,729.244 725.971,747.806 733.452,775.985 709.012,760.226 686.17,775.985 692.845,747.806 		"/>
		<polygon id="_233010136" fill="#FFFFFF" points="827.744,729.244 854.718,729.244 864.603,700.926 875.555,729.244 
			902.271,729.244 881.965,747.806 889.448,775.985 865.005,760.226 842.17,775.985 848.844,747.806 		"/>
		<polygon id="_233009968" fill="#FFFFFF" points="134.299,796.825 161.276,796.825 171.162,768.51 182.111,796.825 
			208.827,796.825 188.525,815.389 196.005,843.568 171.562,827.81 148.723,843.568 155.399,815.389 		"/>
		<polygon id="_233010496" fill="#FFFFFF" points="286.026,796.825 313.002,796.825 322.887,768.51 333.838,796.825 
			360.551,796.825 340.249,815.389 347.731,843.568 323.289,827.81 300.45,843.568 307.125,815.389 		"/>
		<polygon id="_233010088" fill="#FFFFFF" points="443.091,796.825 470.07,796.825 479.956,768.51 490.904,796.825 517.618,796.825 
			497.314,815.389 504.796,843.568 480.354,827.81 457.515,843.568 464.189,815.389 		"/>
		<polygon id="_233010280" fill="#FFFFFF" points="594.813,796.825 621.793,796.825 631.679,768.51 642.626,796.825 669.34,796.825 
			649.039,815.389 656.518,843.568 632.079,827.81 609.24,843.568 615.92,815.389 		"/>
		<polygon id="_233010184" fill="#FFFFFF" points="747.611,796.825 774.583,796.825 784.469,768.51 795.418,796.825 
			822.132,796.825 801.832,815.389 809.312,843.568 784.871,827.81 762.031,843.568 768.71,815.389 		"/>
		<polygon id="_233010112" fill="#FFFFFF" points="58.441,856.659 85.417,856.659 95.302,828.343 106.251,856.659 132.968,856.659 
			112.662,875.222 120.144,903.4 95.703,887.642 72.866,903.4 79.54,875.222 		"/>
		<polygon id="_233010400" fill="#FFFFFF" points="210.163,856.659 237.144,856.659 247.024,828.343 257.978,856.659 
			284.69,856.659 264.39,875.222 271.87,903.4 247.425,887.642 224.586,903.4 231.263,875.222 		"/>
		<polygon id="_233010616" fill="#FFFFFF" points="367.227,856.659 394.21,856.659 404.091,828.343 415.042,856.659 
			441.755,856.659 421.453,875.222 428.932,903.4 404.492,887.642 381.653,903.4 388.332,875.222 		"/>
		<polygon id="_233010568" fill="#FFFFFF" points="518.954,856.659 545.934,856.659 555.814,828.343 566.768,856.659 
			593.474,856.659 573.179,875.222 580.653,903.4 556.214,887.642 533.376,903.4 540.057,875.222 		"/>
		<polygon id="_233010688" fill="#FFFFFF" points="671.746,856.659 698.726,856.659 708.611,828.343 719.56,856.659 
			746.278,856.659 725.971,875.222 733.452,903.4 709.012,887.642 686.17,903.4 692.845,875.222 		"/>
		<polygon id="_233009224" fill="#FFFFFF" points="827.744,856.659 854.718,856.659 864.603,828.343 875.555,856.659 
			902.271,856.659 881.965,875.222 889.448,903.4 865.005,887.642 842.17,903.4 848.844,875.222 		"/>
		<polygon id="_233009200" fill="#FFFFFF" points="58.441,982.734 85.417,982.734 95.302,954.427 106.251,982.734 132.968,982.734 
			112.662,1001.306 120.144,1029.485 95.703,1013.723 72.866,1029.485 79.54,1001.306 		"/>
		<polygon id="_233009800" fill="#FFFFFF" points="210.163,982.734 237.144,982.734 247.024,954.427 257.978,982.734 
			284.69,982.734 264.39,1001.306 271.87,1029.485 247.425,1013.723 224.586,1029.485 231.263,1001.306 		"/>
		<polygon id="_233009728" fill="#FFFFFF" points="367.227,982.734 394.21,982.734 404.091,954.427 415.042,982.734 
			441.755,982.734 421.453,1001.306 428.932,1029.485 404.492,1013.723 381.653,1029.485 388.332,1001.306 		"/>
		<polygon id="_233009584" fill="#FFFFFF" points="518.954,982.734 545.934,982.734 555.814,954.427 566.768,982.734 
			593.474,982.734 573.179,1001.306 580.653,1029.485 556.214,1013.723 533.376,1029.485 540.057,1001.306 		"/>
		<polygon id="_233009488" fill="#FFFFFF" points="671.746,982.734 698.726,982.734 708.611,954.427 719.56,982.734 
			746.278,982.734 725.971,1001.306 733.452,1029.485 709.012,1013.723 686.17,1029.485 692.845,1001.306 		"/>
		<polygon id="_233009680" fill="#FFFFFF" points="827.744,982.734 854.718,982.734 864.603,954.427 875.555,982.734 
			902.271,982.734 881.965,1001.306 889.448,1029.485 865.005,1013.723 842.17,1029.485 848.844,1001.306 		"/>
		<polygon id="_233009752" fill="#FFFFFF" points="134.299,924.243 161.276,924.243 171.162,895.926 182.111,924.243 
			208.827,924.243 188.525,942.805 196.005,970.986 171.562,955.227 148.723,970.986 155.399,942.805 		"/>
		<polygon id="_233009848" fill="#FFFFFF" points="286.026,924.243 313.002,924.243 322.887,895.926 333.838,924.243 
			360.551,924.243 340.249,942.805 347.731,970.986 323.289,955.227 300.45,970.986 307.125,942.805 		"/>
		<polygon id="_233009536" fill="#FFFFFF" points="443.091,924.243 470.07,924.243 479.956,895.926 490.904,924.243 
			517.618,924.243 497.314,942.805 504.796,970.986 480.354,955.227 457.515,970.986 464.189,942.805 		"/>
		<polygon id="_233008720" fill="#FFFFFF" points="594.813,924.243 621.793,924.243 631.679,895.926 642.626,924.243 
			669.34,924.243 649.039,942.805 656.518,970.986 632.079,955.227 609.24,970.986 615.92,942.805 		"/>
		<polygon id="_233009104" fill="#FFFFFF" points="747.611,924.243 774.583,924.243 784.469,895.926 795.418,924.243 
			822.132,924.243 801.832,942.805 809.312,970.986 784.871,955.227 762.031,970.986 768.71,942.805 		"/>
	</g>
</g>
<rect fill="none" width="2048" height="2048"/>
<g id="Layer_x0020_1_1_">
	<rect x="11.5" y="414.593" fill="#009B3A" width="2030.977" height="1220.437"/>
	<polygon fill="#FFE52B" points="212.412,1024.811 1026.991,561.998 1841.569,1024.811 1026.991,1487.624 	"/>
	<g id="_362417616">
		<path id="_362420760" fill="#005EAC" d="M1321.942,1024.811c0,162.965-132.061,295.063-294.959,295.063
			c-162.901,0-294.961-132.098-294.961-295.06c0-162.956,132.06-295.059,294.961-295.059c162.9,0,294.959,132.105,294.959,295.058
			V1024.811z"/>
		<path id="_362420112" fill="#FFFFFF" d="M1320.58,1074.95l-12.401,47.449c0,0-197.896-211.577-570.434-167.678l16.931-49.311
			C754.675,905.411,1084.238,850.892,1320.58,1074.95L1320.58,1074.95z"/>
		<polygon id="_362420256" fill="#F7FAFD" points="1121.991,920.967 1124.888,930.086 1134.249,930.086 1126.672,935.722 
			1129.568,944.84 1121.991,939.206 1114.415,944.84 1117.311,935.722 1109.722,930.086 1119.096,930.086 		"/>
		<polygon id="_362420616" fill="#F7FAFD" points="1238.641,1118.215 1241.536,1127.325 1250.898,1127.325 1243.321,1132.959 
			1246.217,1142.082 1238.641,1136.447 1231.052,1142.082 1233.961,1132.959 1226.384,1127.325 1235.744,1127.325 		"/>
		<polygon id="_362419776" fill="#F7FAFD" points="1034.379,1145.639 1037.275,1154.749 1046.649,1154.749 1039.061,1160.395 
			1041.97,1169.505 1034.379,1163.872 1026.804,1169.505 1029.711,1160.395 1022.123,1154.749 1031.497,1154.749 		"/>
		<polygon id="_362419608" fill="#F7FAFD" points="1188.118,1204.598 1190.563,1212.294 1198.458,1212.294 1192.07,1217.04 
			1194.518,1224.735 1188.118,1219.975 1181.73,1224.735 1184.177,1217.04 1177.79,1212.294 1185.685,1212.294 		"/>
		<polygon id="_362419320" fill="#F7FAFD" points="1230.191,1163.991 1232.639,1171.674 1240.531,1171.674 1234.132,1176.433 
			1236.578,1184.115 1230.191,1179.368 1223.805,1184.115 1226.238,1176.433 1219.852,1171.674 1227.746,1171.674 		"/>
		<polygon id="_362419368" fill="#F7FAFD" points="1243.533,1147.198 1245.979,1154.895 1253.873,1154.895 1247.486,1159.64 
			1249.919,1167.336 1243.533,1162.578 1237.147,1167.336 1239.579,1159.64 1233.193,1154.895 1241.1,1154.895 		"/>
		<polygon id="_362419968" fill="#F7FAFD" points="1106.021,1005.585 1108.042,1011.985 1114.627,1011.985 1109.298,1015.952 
			1111.335,1022.352 1106.021,1018.399 1100.69,1022.352 1102.727,1015.952 1097.411,1011.985 1103.969,1011.985 		"/>
		<polygon id="_362419560" fill="#F7FAFD" points="1030.215,1058.396 1032.555,1065.88 1040.145,1065.88 1033.996,1070.507 
			1036.362,1077.991 1030.215,1073.364 1024.066,1077.991 1026.406,1070.507 1020.271,1065.88 1027.861,1065.88 		"/>
		<polygon id="_362419704" fill="#F7FAFD" points="923.756,1025.273 926.107,1032.757 933.689,1032.757 927.545,1037.386 
			929.898,1044.87 923.756,1040.242 917.618,1044.87 919.965,1037.386 913.822,1032.757 921.403,1032.757 		"/>
		<polygon id="_362419944" fill="#F7FAFD" points="814.994,1080.134 817.953,1089.668 827.501,1089.668 819.76,1095.551 
			822.73,1105.085 814.994,1099.188 807.26,1105.085 810.216,1095.551 802.478,1089.668 812.024,1089.668 		"/>
		<polygon id="_362420040" fill="#F7FAFD" points="786.907,957.193 789.866,966.721 799.413,966.721 791.678,972.612 
			794.643,982.146 786.907,976.253 779.172,982.146 782.13,972.612 774.396,966.721 783.943,966.721 		"/>
		<polygon id="_362419488" fill="#F7FAFD" points="918.181,1171.197 921.051,1180.307 930.335,1180.307 922.814,1185.954 
			925.695,1195.078 918.181,1189.444 910.66,1195.078 913.537,1185.954 906.01,1180.307 915.299,1180.307 		"/>
		<polygon id="_362418720" fill="#F7FAFD" points="1065.465,1089.549 1067.819,1097.033 1075.396,1097.033 1069.247,1101.66 
			1071.614,1109.146 1065.465,1104.517 1059.33,1109.146 1061.67,1101.66 1055.522,1097.033 1063.112,1097.033 		"/>
		<polygon id="_362419080" fill="#F7FAFD" points="1125.999,1219.908 1128.034,1226.296 1134.605,1226.296 1129.278,1230.263 
			1131.314,1236.661 1125.999,1232.708 1120.669,1236.661 1122.705,1230.263 1117.392,1226.296 1123.962,1226.296 		"/>
		<polygon id="_362418600" fill="#F7FAFD" points="1143.941,1179.249 1145.978,1185.637 1152.549,1185.637 1147.22,1189.604 
			1149.269,1196.003 1143.941,1192.049 1138.626,1196.003 1140.648,1189.604 1135.334,1185.637 1141.905,1185.637 		"/>
		<polygon id="_362418888" fill="#F7FAFD" points="1003.821,1088.372 1005.859,1094.758 1012.43,1094.758 1007.102,1098.725 
			1009.15,1105.125 1003.821,1101.171 998.507,1105.125 1000.542,1098.725 995.218,1094.758 1001.787,1094.758 		"/>
		<polygon id="_362419272" fill="#F7FAFD" points="843.274,1066.581 844.966,1072.016 850.418,1072.016 846.001,1075.374 
			847.699,1080.822 843.274,1077.45 838.867,1080.822 840.552,1075.374 836.135,1072.016 841.588,1072.016 		"/>
		<polygon id="_362419248" fill="#F7FAFD" points="1188.012,1179.249 1190.049,1185.637 1196.62,1185.637 1191.305,1189.604 
			1193.34,1196.003 1188.012,1192.049 1182.696,1196.003 1184.732,1189.604 1179.404,1185.637 1185.976,1185.637 		"/>
		<polygon id="_362418840" fill="#F7FAFD" points="1188.038,1229.43 1189.809,1234.995 1195.522,1234.995 1190.895,1238.447 
			1192.666,1244.015 1188.038,1240.575 1183.41,1244.015 1185.182,1238.447 1180.555,1234.995 1186.267,1234.995 		"/>
		<polygon id="_362419008" fill="#F7FAFD" points="874.64,1108.509 876.926,1115.9 884.326,1115.9 878.337,1120.463 
			880.626,1127.854 874.64,1123.292 868.645,1127.854 870.93,1120.463 864.944,1115.9 872.343,1115.9 		"/>
		<polygon id="_362418960" fill="#F7FAFD" points="777.665,1108.509 779.948,1115.9 787.347,1115.9 781.36,1120.463 
			783.652,1127.854 777.665,1123.292 771.668,1127.854 773.955,1120.463 767.968,1115.9 775.367,1115.9 		"/>
		<polygon id="_362419104" fill="#F7FAFD" points="1024.728,1112.08 1026.512,1117.646 1032.224,1117.646 1027.597,1121.098 
			1029.355,1126.664 1024.728,1123.226 1020.1,1126.664 1021.871,1121.098 1017.243,1117.646 1022.955,1117.646 		"/>
		<polygon id="_362419128" fill="#F7FAFD" points="866.772,1147.384 868.541,1152.938 874.254,1152.938 869.625,1156.388 
			871.399,1161.955 866.772,1158.518 862.138,1161.955 863.907,1156.388 859.283,1152.938 864.998,1152.938 		"/>
		<polygon id="_362418504" fill="#F7FAFD" points="1277.964,1123.874 1279.736,1129.439 1285.448,1129.439 1280.821,1132.892 
			1282.592,1138.459 1277.964,1135.02 1273.323,1138.459 1275.109,1132.892 1270.481,1129.439 1276.192,1129.439 		"/>
		<polygon id="_362418264" fill="#F7FAFD" points="1210.054,1179.249 1212.091,1185.637 1218.661,1185.637 1213.332,1189.604 
			1215.383,1196.003 1210.054,1192.049 1204.725,1196.003 1206.761,1189.604 1201.446,1185.637 1208.019,1185.637 		"/>
		<polygon id="_362418312" fill="#F7FAFD" points="1101.007,1177.478 1103.045,1183.877 1109.616,1183.877 1104.287,1187.844 
			1106.323,1194.244 1101.007,1190.291 1095.68,1194.244 1097.716,1187.844 1092.399,1183.877 1098.972,1183.877 		"/>
		<polygon id="_362418000" fill="#F7FAFD" points="1032.819,1241.633 1033.771,1244.688 1036.839,1244.688 1034.354,1246.578 
			1035.306,1249.634 1032.819,1247.742 1030.333,1249.634 1031.285,1246.578 1028.813,1244.688 1031.881,1244.688 		"/>
		<path id="_362418024" fill="#231F20" d="M780.009,924.585c0-2.677,0.431-4.929,1.279-6.749c0.638-1.339,1.503-2.543,2.605-3.609
			c1.098-1.065,2.303-1.854,3.615-2.37c1.742-0.694,3.746-1.042,6.02-1.042c4.118-0.001,7.417,1.202,9.884,3.607
			c2.475,2.403,3.714,5.75,3.714,10.038c0,4.247-1.229,7.572-3.685,9.971c-2.452,2.403-5.731,3.6-9.835,3.6
			c-4.159-0.001-7.46-1.193-9.913-3.581C781.238,932.063,780.009,928.776,780.009,924.585L780.009,924.585z M785.811,924.404
			c0,2.985,0.733,5.245,2.204,6.786c1.46,1.538,3.321,2.306,5.581,2.306c2.255,0,4.111-0.76,5.559-2.288
			c1.449-1.531,2.171-3.818,2.171-6.871c0-3.019-0.704-5.269-2.115-6.758c-1.405-1.485-3.277-2.227-5.615-2.227
			c-2.329,0-4.214,0.756-5.641,2.253C786.521,919.108,785.811,921.377,785.811,924.404z"/>
		<path id="_362418360" fill="#231F20" d="M1081.821,970.481c0-2.676,0.424-4.928,1.272-6.747c0.634-1.34,1.51-2.545,2.605-3.61
			c1.097-1.065,2.304-1.854,3.615-2.37c1.74-0.695,3.746-1.042,6.026-1.042c4.111,0,7.411,1.204,9.885,3.608
			c2.468,2.406,3.708,5.752,3.708,10.037c0,4.248-1.23,7.574-3.681,9.973c-2.458,2.4-5.73,3.601-9.84,3.601
			c-4.153,0-7.46-1.195-9.905-3.583C1083.046,977.96,1081.821,974.672,1081.821,970.481L1081.821,970.481z M1087.612,970.302
			c0,2.985,0.737,5.246,2.208,6.785c1.461,1.538,3.322,2.307,5.583,2.307c2.258,0,4.114-0.762,5.558-2.289
			c1.448-1.531,2.171-3.817,2.171-6.87c0-3.019-0.706-5.271-2.11-6.757c-1.411-1.486-3.284-2.229-5.618-2.229
			c-2.332,0-4.216,0.755-5.637,2.254C1088.335,965.006,1087.612,967.275,1087.612,970.302z"/>
		<path id="_362417928" fill="#231F20" d="M817.942,937.085v-27.497h13.922c3.498,0,6.049,0.244,7.642,0.736
			c1.58,0.494,2.848,1.372,3.805,2.63c0.954,1.265,1.433,2.704,1.433,4.331c0,2.058-0.72,3.763-2.159,5.104
			c-1.438,1.344-3.592,2.187-6.457,2.538c1.427,0.704,2.611,1.474,3.537,2.314c0.926,0.837,2.182,2.328,3.764,4.469l3.999,5.374
			h-7.921l-4.761-5.992c-1.702-2.146-2.871-3.497-3.498-4.05c-0.628-0.558-1.29-0.941-1.994-1.143
			c-0.7-0.213-1.821-0.314-3.34-0.314l-1.349-0.002v11.501H817.942L817.942,937.085z M824.565,921.187h4.891
			c3.184,0,5.163-0.113,5.956-0.336c0.783-0.222,1.404-0.609,1.851-1.157c0.45-0.55,0.678-1.232,0.678-2.055
			c0-0.927-0.299-1.672-0.888-2.234c-0.594-0.566-1.416-0.923-2.496-1.077c-0.533-0.064-2.143-0.093-4.827-0.093h-5.166V921.187z"/>
		<path id="_362418168" fill="#231F20" d="M1045.646,967.242l8.652-26.103l13.225,4.385c3.311,1.1,5.65,2.137,7.006,3.105
			c1.351,0.965,2.275,2.196,2.795,3.697c0.513,1.501,0.506,3.014-0.007,4.558c-0.644,1.954-1.872,3.344-3.657,4.166
			c-1.785,0.822-4.094,0.945-6.926,0.378c1.13,1.117,2.017,2.22,2.628,3.307c0.618,1.089,1.339,2.894,2.166,5.428l2.104,6.362
			l-7.514-2.498l-2.634-7.181c-0.942-2.576-1.62-4.225-2.05-4.948c-0.425-0.727-0.926-1.3-1.531-1.713
			c-0.589-0.421-1.626-0.872-3.069-1.351l-1.276-0.422l-3.622,10.914L1045.646,967.242L1045.646,967.242z M1056.938,954.237
			l4.64,1.538c3.024,1.002,4.941,1.521,5.762,1.556c0.816,0.035,1.521-0.135,2.117-0.516c0.604-0.377,1.029-0.955,1.292-1.735
			c0.289-0.88,0.243-1.678-0.142-2.4c-0.381-0.723-1.053-1.323-2.021-1.808c-0.495-0.229-2.005-0.764-4.562-1.608l-4.903-1.625
			L1056.938,954.237z"/>
		<path id="_362417880" fill="#231F20" d="M1146.109,1005.876l12.86-24.313l12.306,6.517c3.086,1.632,5.224,3.036,6.402,4.222
			c1.169,1.172,1.88,2.538,2.143,4.103c0.255,1.565,0,3.058-0.761,4.497c-0.963,1.818-2.402,2.991-4.295,3.498
			c-1.902,0.518-4.199,0.258-6.894-0.766c0.933,1.29,1.62,2.518,2.044,3.691c0.43,1.179,0.836,3.08,1.233,5.713l1.026,6.622
			l-7.003-3.701l-1.405-7.521c-0.507-2.693-0.897-4.435-1.201-5.217c-0.297-0.788-0.694-1.432-1.229-1.946
			c-0.516-0.512-1.454-1.129-2.803-1.833l-1.191-0.634l-5.376,10.166L1146.109,1005.876L1146.109,1005.876z M1159.398,994.924
			l4.319,2.281c2.821,1.488,4.627,2.32,5.425,2.485c0.801,0.172,1.526,0.116,2.178-0.153c0.656-0.276,1.174-0.777,1.559-1.499
			c0.425-0.821,0.518-1.616,0.26-2.392c-0.26-0.777-0.827-1.482-1.698-2.116c-0.452-0.308-1.854-1.085-4.23-2.341l-4.565-2.419
			L1159.398,994.924L1159.398,994.924z"/>
		<path id="_362418336" fill="#231F20" d="M854.926,909.999h11.443c2.577,0,4.545,0.178,5.895,0.528
			c1.825,0.477,3.378,1.328,4.679,2.551c1.293,1.224,2.285,2.718,2.957,4.49c0.679,1.768,1.02,3.957,1.02,6.55
			c0,2.278-0.32,4.247-0.953,5.899c-0.776,2.015-1.879,3.646-3.321,4.893c-1.086,0.946-2.552,1.678-4.398,2.211
			c-1.382,0.389-3.229,0.583-5.542,0.583h-11.779V909.999z M861.18,914.682v18.337h4.693c1.757,0,3.02-0.09,3.795-0.265
			c1.02-0.226,1.868-0.61,2.541-1.15c0.666-0.539,1.217-1.433,1.641-2.672c0.431-1.237,0.64-2.932,0.64-5.073
			c0-2.139-0.209-3.783-0.64-4.928c-0.423-1.147-1.02-2.037-1.779-2.681c-0.766-0.644-1.735-1.079-2.909-1.304
			c-0.875-0.175-2.599-0.264-5.156-0.264H861.18L861.18,914.682z"/>
		<polygon id="_362417232" fill="#231F20" points="890.742,938.63 891.895,910.948 914.824,911.906 914.633,916.585 
			897.959,915.888 897.706,922.028 913.194,922.676 912.996,927.36 897.508,926.711 897.194,934.21 914.488,934.932 914.29,939.613 
					"/>
		<polygon id="_362417688" fill="#231F20" points="1177.143,1022.325 1190.062,997.811 1210.372,1008.508 1208.177,1012.646 
			1193.42,1004.872 1190.551,1010.319 1204.276,1017.54 1202.094,1021.69 1188.369,1014.458 1184.865,1021.096 1200.176,1029.174 
			1197.995,1033.313 		"/>
		<polygon id="_362417016" fill="#231F20" points="975.561,949.93 979.856,927.309 998.6,930.869 997.858,934.688 984.242,932.102 
			983.294,937.12 995.955,939.525 995.222,943.357 982.563,940.952 981.4,947.078 995.532,949.757 994.811,953.582 		"/>
		<polygon id="_362417064" fill="#231F20" points="924.445,942.002 927.64,914.477 936.097,915.463 938.96,934.822 946.146,916.625 
			954.642,917.612 951.445,945.138 946.206,944.528 948.703,922.856 940.608,943.88 935.193,943.249 932.224,920.945 
			929.684,942.608 		"/>
		<path id="_362417592" fill="#231F20" d="M1266.157,1067.004c0.997-2.484,2.235-4.411,3.703-5.778
			c1.09-1.008,2.346-1.796,3.761-2.38c1.417-0.579,2.833-0.86,4.242-0.85c1.869,0.011,3.861,0.431,5.978,1.284
			c3.815,1.536,6.43,3.885,7.825,7.041c1.389,3.146,1.288,6.716-0.315,10.689c-1.581,3.938-3.96,6.565-7.135,7.877
			c-3.173,1.312-6.659,1.206-10.469-0.326c-3.861-1.557-6.479-3.895-7.854-7.024
			C1264.505,1074.403,1264.587,1070.898,1266.157,1067.004L1266.157,1067.004z M1271.601,1069.005
			c-1.119,2.776-1.278,5.145-0.492,7.122c0.788,1.969,2.228,3.368,4.321,4.223c2.093,0.837,4.099,0.825,6.011-0.047
			c1.917-0.88,3.437-2.73,4.578-5.574c1.123-2.8,1.312-5.146,0.567-7.046c-0.755-1.907-2.215-3.295-4.381-4.165
			c-2.164-0.871-4.192-0.876-6.07-0.018C1274.245,1064.36,1272.731,1066.195,1271.601,1069.005L1271.601,1069.005z"/>
		<path id="_362417136" fill="#231F20" d="M1236.67,1045.849l5.311,3.025c-0.704,1.657-0.826,3.141-0.38,4.463
			c0.447,1.317,1.448,2.518,3.013,3.599c1.658,1.15,3.118,1.707,4.369,1.686c1.27-0.023,2.177-0.438,2.728-1.256
			c0.359-0.509,0.496-1.075,0.394-1.688c-0.106-0.604-0.492-1.344-1.181-2.224c-0.48-0.586-1.632-1.852-3.433-3.797
			c-2.348-2.496-3.78-4.556-4.287-6.187c-0.716-2.292-0.463-4.304,0.744-6.045c0.776-1.13,1.867-1.917,3.283-2.39
			c1.41-0.464,2.975-0.485,4.718-0.035c1.729,0.442,3.563,1.334,5.52,2.689c3.184,2.21,5.156,4.479,5.918,6.82
			c0.761,2.343,0.483,4.551-0.85,6.656l-5.25-3.41c0.567-1.285,0.656-2.431,0.292-3.427c-0.374-0.999-1.273-1.99-2.721-2.986
			c-1.489-1.035-2.834-1.576-4.05-1.626c-0.768-0.021-1.355,0.242-1.752,0.815c-0.358,0.523-0.415,1.146-0.167,1.867
			c0.311,0.921,1.554,2.502,3.686,4.739c2.132,2.231,3.625,4.049,4.436,5.416c0.821,1.377,1.24,2.771,1.251,4.175
			c0.021,1.416-0.457,2.828-1.42,4.216c-0.877,1.272-2.095,2.171-3.677,2.722c-1.564,0.539-3.284,0.557-5.141,0.07
			c-1.856-0.495-3.889-1.504-6.099-3.046c-3.223-2.227-5.245-4.584-6.071-7.068
			C1235.023,1051.144,1235.292,1048.548,1236.67,1045.849L1236.67,1045.849z"/>
		<path id="_362417112" fill="#231F20" d="M1209.021,1028.566l5.307,3.019c-0.706,1.657-0.827,3.141-0.38,4.468
			c0.447,1.311,1.455,2.519,3.019,3.592c1.658,1.151,3.112,1.708,4.367,1.692c1.265-0.021,2.172-0.44,2.724-1.261
			c0.359-0.51,0.501-1.07,0.392-1.686c-0.1-0.608-0.491-1.346-1.18-2.228c-0.473-0.578-1.624-1.852-3.432-3.791
			c-2.341-2.494-3.773-4.562-4.286-6.186c-0.717-2.294-0.463-4.309,0.747-6.05c0.773-1.125,1.87-1.918,3.285-2.387
			c1.405-0.468,2.977-0.483,4.716-0.033c1.727,0.44,3.559,1.333,5.521,2.689c3.18,2.21,5.152,4.479,5.91,6.815
			c0.768,2.336,0.486,4.551-0.842,6.654l-5.251-3.41c0.563-1.282,0.656-2.429,0.287-3.428c-0.374-0.995-1.272-1.987-2.721-2.991
			c-1.481-1.029-2.827-1.563-4.045-1.618c-0.771-0.028-1.354,0.242-1.752,0.814c-0.362,0.524-0.418,1.146-0.171,1.869
			c0.315,0.918,1.558,2.499,3.688,4.742c2.137,2.227,3.624,4.043,4.438,5.41c0.814,1.377,1.239,2.771,1.245,4.184
			c0.023,1.414-0.456,2.819-1.415,4.208c-0.882,1.272-2.095,2.17-3.676,2.727c-1.568,0.533-3.283,0.551-5.146,0.067
			c-1.857-0.497-3.884-1.505-6.094-3.042c-3.222-2.232-5.249-4.59-6.076-7.074
			C1207.375,1033.854,1207.645,1031.261,1209.021,1028.566L1209.021,1028.566z"/>
		<path id="_362417376" fill="#231F20" d="M1128.167,987.533l1.935-4.163l11.486,5.355l-4.588,9.849
			c-1.588,0.491-3.627,0.618-6.111,0.393c-2.484-0.221-4.814-0.843-6.991-1.857c-2.777-1.295-4.937-2.959-6.479-5.002
			c-1.565-2.044-2.386-4.315-2.48-6.812c-0.094-2.5,0.414-4.939,1.515-7.31c1.202-2.572,2.839-4.59,4.933-6.049
			c2.089-1.463,4.505-2.198,7.22-2.228c2.086-0.033,4.389,0.544,6.917,1.724c3.285,1.537,5.553,3.37,6.815,5.511
			c1.244,2.141,1.619,4.463,1.089,6.96l-5.739-1.533c0.183-1.381-0.077-2.655-0.772-3.839c-0.715-1.175-1.84-2.121-3.376-2.844
			c-2.347-1.09-4.519-1.265-6.545-0.525c-2.027,0.741-3.671,2.465-4.937,5.184c-1.373,2.933-1.702,5.461-0.977,7.584
			c0.714,2.12,2.205,3.712,4.475,4.771c1.117,0.526,2.341,0.84,3.67,0.963c1.316,0.115,2.518,0.066,3.603-0.139l1.471-3.14
			L1128.167,987.533z"/>
		<path id="_362417448" fill="#231F20" d="M1014.73,957.945l9.019-26.273l8.453,2.901c3.201,1.098,5.239,1.942,6.126,2.542
			c1.355,0.911,2.313,2.193,2.87,3.863c0.552,1.668,0.475,3.55-0.248,5.645c-0.557,1.617-1.317,2.872-2.265,3.774
			c-0.963,0.901-2,1.514-3.106,1.832c-1.113,0.325-2.166,0.426-3.163,0.31c-1.344-0.179-3.206-0.679-5.59-1.497l-3.428-1.176
			l-3.394,9.888l-5.273-1.81H1014.73z M1027.496,937.925l-2.572,7.5l2.887,0.99c2.076,0.711,3.515,1.049,4.309,1.012
			c0.794-0.037,1.497-0.279,2.088-0.733c0.602-0.451,1.046-1.064,1.313-1.847c0.329-0.959,0.317-1.852-0.035-2.669
			c-0.34-0.819-0.902-1.445-1.707-1.899c-0.588-0.334-1.835-0.827-3.735-1.479L1027.496,937.925L1027.496,937.925z"/>
	</g>
</g>
<g id="Layer_x0020_1_2_">
	<rect x="12.037" y="415.581" fill="#FF0000" width="504.996" height="1219.98"/>
	<rect x="517.034" y="415.581" fill="#EEEEEE" width="1020.224" height="1219.98"/>
	<rect x="1537.266" y="415.581" fill="#FF0000" width="504.996" height="1219.98"/>
	<path fill="#FF0000" d="M1389.414,997.299L1389.414,997.299z M854.939,726.928l35.201,194.563l-76.279-88.979l-25.821-30.119
		l-10.528,38.297l-12.718,46.267L661.6,864.238l-33.771-7.435l8.822,33.457l28.298,107.287l0.04-0.01l1.671,6.517
		c1.747,6.568,7.919,7.508,5.227,8.509l-1.9,0.826l-38.436,18.798l-29.009,14.187l24.632,20.84l185.686,157.096l0.167,0.164
		c0.564,0.468,1.031,1.228,1.322,2.147c0.238,0.751,0.303,1.484,0.136,2.071l0.056,0.016l-16.158,55.492l-8.93,30.673l31.645-3.825
		l183.628-22.197H1006l-21.149,194.738h84.595l-21.149-194.738h1.146l73.357,8.873c36.341,4.404,72.209,8.755,110.446,13.324
		l31.764,3.797l-9.047-30.728l-16.146-54.841l0.027-0.007c-0.221-0.875-0.16-1.815,0.12-2.689c0.28-0.864,0.754-1.611,1.354-2.106
		l0.165-0.164l185.638-157.096l24.632-20.846l-29.009-14.181l-38.451-18.798l-1.9-0.909c-2.765-1.023,3.497-1.75,5.114-7.901
		l1.891-7.284l28.296-107.035l8.844-33.456l-33.791,7.434l-103.254,22.718l-12.658-46.266l-10.488-38.33l-25.859,30.15
		l-76.273,88.924l35.063-194.506l7.796-43.248l-38.609,20.944l-48.738,26.439l-0.329,0.248l-1.368,0.736
		c-1.984,1.042-3.697,1.808-4.981,2.18l-67.063-130.269l-18.746-36.414l-18.759,36.414L941.35,734.261
		c-1.338-0.372-3.141-1.182-5.221-2.296c-0.866-0.465,0.547,0.263-1.045-0.652l-0.496-0.248l-48.919-26.439l-38.534-20.825
		L854.939,726.928L854.939,726.928z"/>
</g>
</svg>
