<?xml version="1.0" encoding="utf-8"?>
<!-- Generator: Adobe Illustrator 16.0.0, SVG Export Plug-In . SVG Version: 6.00 Build 0)  -->
<!DOCTYPE svg PUBLIC "-//W3C//DTD SVG 1.1//EN" "http://www.w3.org/Graphics/SVG/1.1/DTD/svg11.dtd">
<svg version="1.1" id="Layer_1" xmlns="http://www.w3.org/2000/svg" xmlns:xlink="http://www.w3.org/1999/xlink" x="0px" y="0px"
	 width="2016px" height="1211.438px" viewBox="16.5 418.581 2016 1211.438" enable-background="new 16.5 418.581 2016 1211.438"
	 xml:space="preserve">
<g id="Layer_x0020_1">
	<g id="_233009080">
		<rect id="_233013736" x="16.5" y="418.581" fill="#EEEEEE" width="2015.999" height="1211.438"/>
		<polygon id="_233013136" fill="#BE2033" points="2032.5,511.761 823.835,511.761 823.835,418.581 2032.5,418.581 		"/>
		<polygon id="_233013616" fill="#BE2033" points="2032.5,694.928 823.835,694.928 823.835,601.747 2032.5,601.747 		"/>
		<polygon id="_233013544" fill="#BE2033" points="2032.5,878.625 823.835,878.625 823.835,785.441 2032.5,785.441 		"/>
		<polygon id="_233013640" fill="#BE2033" points="2032.5,1059.122 823.835,1059.122 823.835,965.941 2032.5,965.941 		"/>
		<polygon id="_233012896" fill="#BE2033" points="2032.5,1239.616 16.5,1239.616 16.5,1146.429 2032.5,1146.429 		"/>
		<polygon id="_233012272" fill="#BE2033" points="2032.5,1432.895 16.5,1432.895 16.5,1339.721 2032.5,1339.721 		"/>
		<polygon id="_233012728" fill="#BE2033" points="2032.5,1630.02 16.5,1630.02 16.5,1536.845 2032.5,1536.845 		"/>
		<polygon id="_233012464" fill="#212F64" points="942.869,1059.135 16.5,1059.135 16.5,418.581 942.869,418.581 		"/>
		<polygon id="_233012416" fill="#FFFFFF" points="58.441,472.808 85.417,472.808 95.302,444.493 106.251,472.808 132.968,472.808 
			112.662,491.371 120.144,519.552 95.703,503.791 72.866,519.552 79.54,491.371 		"/>
		<polygon id="_233012584" fill="#FFFFFF" points="210.163,472.808 237.144,472.808 247.024,444.493 257.978,472.808 
			284.69,472.808 264.39,491.371 271.87,519.552 247.425,503.791 224.586,519.552 231.263,491.371 		"/>
		<polygon id="_233012512" fill="#FFFFFF" points="367.227,472.808 394.21,472.808 404.091,444.493 415.042,472.808 
			441.755,472.808 421.453,491.371 428.932,519.552 404.492,503.791 381.653,519.552 388.332,491.371 		"/>
		<polygon id="_233012680" fill="#FFFFFF" points="518.954,472.808 545.934,472.808 555.814,444.493 566.768,472.808 
			593.474,472.808 573.179,491.371 580.653,519.552 556.214,503.791 533.376,519.552 540.057,491.371 		"/>
		<polygon id="_233012824" fill="#FFFFFF" points="671.746,472.808 698.726,472.808 708.611,444.493 719.56,472.808 
			746.278,472.808 725.971,491.371 733.452,519.552 709.012,503.791 686.17,519.552 692.845,491.371 		"/>
		<polygon id="_233012488" fill="#FFFFFF" points="827.744,472.808 854.718,472.808 864.603,444.493 875.555,472.808 
			902.271,472.808 881.965,491.371 889.448,519.552 865.005,503.791 842.17,519.552 848.844,491.371 		"/>
		<polygon id="_233011528" fill="#FFFFFF" points="134.299,540.387 161.276,540.387 171.162,512.071 182.111,540.387 
			208.827,540.387 188.525,558.952 196.005,587.135 171.562,571.375 148.723,587.135 155.399,558.952 		"/>
		<polygon id="_233011840" fill="#FFFFFF" points="286.026,540.387 313.002,540.387 322.887,512.071 333.838,540.387 
			360.551,540.387 340.249,558.952 347.731,587.135 323.289,571.375 300.45,587.135 307.125,558.952 		"/>
		<polygon id="_233012056" fill="#FFFFFF" points="443.091,540.387 470.07,540.387 479.956,512.071 490.904,540.387 
			517.618,540.387 497.314,558.952 504.796,587.135 480.354,571.375 457.515,587.135 464.189,558.952 		"/>
		<polygon id="_233011792" fill="#FFFFFF" points="594.813,540.387 621.793,540.387 631.679,512.071 642.626,540.387 
			669.34,540.387 649.039,558.952 656.518,587.135 632.079,571.375 609.24,587.135 615.92,558.952 		"/>
		<polygon id="_233011624" fill="#FFFFFF" points="747.611,540.387 774.583,540.387 784.469,512.071 795.418,540.387 
			822.132,540.387 801.832,558.952 809.312,587.135 784.871,571.375 762.031,587.135 768.71,558.952 		"/>
		<polygon id="_233011888" fill="#FFFFFF" points="58.441,599.957 85.417,599.957 95.302,571.639 106.251,599.957 132.968,599.957 
			112.662,618.52 120.144,646.698 95.703,630.939 72.866,646.698 79.54,618.52 		"/>
		<polygon id="_233011720" fill="#FFFFFF" points="210.163,599.957 237.144,599.957 247.024,571.639 257.978,599.957 
			284.69,599.957 264.39,618.52 271.87,646.698 247.425,630.939 224.586,646.698 231.263,618.52 		"/>
		<polygon id="_233011648" fill="#FFFFFF" points="367.227,599.957 394.21,599.957 404.091,571.639 415.042,599.957 
			441.755,599.957 421.453,618.52 428.932,646.698 404.492,630.939 381.653,646.698 388.332,618.52 		"/>
		<polygon id="_233011480" fill="#FFFFFF" points="518.954,599.957 545.934,599.957 555.814,571.639 566.768,599.957 
			593.474,599.957 573.179,618.52 580.653,646.698 556.214,630.939 533.376,646.698 540.057,618.52 		"/>
		<polygon id="_233012128" fill="#FFFFFF" points="671.746,599.957 698.726,599.957 708.611,571.639 719.56,599.957 
			746.278,599.957 725.971,618.52 733.452,646.698 709.012,630.939 686.17,646.698 692.845,618.52 		"/>
		<polygon id="_233012104" fill="#FFFFFF" points="827.744,599.957 854.718,599.957 864.603,571.639 875.555,599.957 
			902.271,599.957 881.965,618.52 889.448,646.698 865.005,630.939 842.17,646.698 848.844,618.52 		"/>
		<polygon id="_233011096" fill="#FFFFFF" points="134.299,667.537 161.276,667.537 171.162,639.222 182.111,667.537 
			208.827,667.537 188.525,686.101 196.005,714.281 171.562,698.523 148.723,714.281 155.399,686.101 		"/>
		<polygon id="_233010712" fill="#FFFFFF" points="286.026,667.537 313.002,667.537 322.887,639.222 333.838,667.537 
			360.551,667.537 340.249,686.101 347.731,714.281 323.289,698.523 300.45,714.281 307.125,686.101 		"/>
		<polygon id="_233010904" fill="#FFFFFF" points="443.091,667.537 470.07,667.537 479.956,639.222 490.904,667.537 
			517.618,667.537 497.314,686.101 504.796,714.281 480.354,698.523 457.515,714.281 464.189,686.101 		"/>
		<polygon id="_233010736" fill="#FFFFFF" points="594.813,667.537 621.793,667.537 631.679,639.222 642.626,667.537 
			669.34,667.537 649.039,686.101 656.518,714.281 632.079,698.523 609.24,714.281 615.92,686.101 		"/>
		<polygon id="_233011264" fill="#FFFFFF" points="747.611,667.537 774.583,667.537 784.469,639.222 795.418,667.537 
			822.132,667.537 801.832,686.101 809.312,714.281 784.871,698.523 762.031,714.281 768.71,686.101 		"/>
		<polygon id="_233011456" fill="#FFFFFF" points="58.441,729.244 85.417,729.244 95.302,700.926 106.251,729.244 132.968,729.244 
			112.662,747.806 120.144,775.985 95.703,760.226 72.866,775.985 79.54,747.806 		"/>
		<polygon id="_233011312" fill="#FFFFFF" points="210.163,729.244 237.144,729.244 247.024,700.926 257.978,729.244 
			284.69,729.244 264.39,747.806 271.87,775.985 247.425,760.226 224.586,775.985 231.263,747.806 		"/>
		<polygon id="_233011408" fill="#FFFFFF" points="367.227,729.244 394.21,729.244 404.091,700.926 415.042,729.244 
			441.755,729.244 421.453,747.806 428.932,775.985 404.492,760.226 381.653,775.985 388.332,747.806 		"/>
		<polygon id="_233011144" fill="#FFFFFF" points="518.954,729.244 545.934,729.244 555.814,700.926 566.768,729.244 
			593.474,729.244 573.179,747.806 580.653,775.985 556.214,760.226 533.376,775.985 540.057,747.806 		"/>
		<polygon id="_233011048" fill="#FFFFFF" points="671.746,729.244 698.726,729.244 708.611,700.926 719.56,729.244 
			746.278,729.244 725.971,747.806 733.452,775.985 709.012,760.226 686.17,775.985 692.845,747.806 		"/>
		<polygon id="_233010136" fill="#FFFFFF" points="827.744,729.244 854.718,729.244 864.603,700.926 875.555,729.244 
			902.271,729.244 881.965,747.806 889.448,775.985 865.005,760.226 842.17,775.985 848.844,747.806 		"/>
		<polygon id="_233009968" fill="#FFFFFF" points="134.299,796.825 161.276,796.825 171.162,768.51 182.111,796.825 
			208.827,796.825 188.525,815.389 196.005,843.568 171.562,827.81 148.723,843.568 155.399,815.389 		"/>
		<polygon id="_233010496" fill="#FFFFFF" points="286.026,796.825 313.002,796.825 322.887,768.51 333.838,796.825 
			360.551,796.825 340.249,815.389 347.731,843.568 323.289,827.81 300.45,843.568 307.125,815.389 		"/>
		<polygon id="_233010088" fill="#FFFFFF" points="443.091,796.825 470.07,796.825 479.956,768.51 490.904,796.825 517.618,796.825 
			497.314,815.389 504.796,843.568 480.354,827.81 457.515,843.568 464.189,815.389 		"/>
		<polygon id="_233010280" fill="#FFFFFF" points="594.813,796.825 621.793,796.825 631.679,768.51 642.626,796.825 669.34,796.825 
			649.039,815.389 656.518,843.568 632.079,827.81 609.24,843.568 615.92,815.389 		"/>
		<polygon id="_233010184" fill="#FFFFFF" points="747.611,796.825 774.583,796.825 784.469,768.51 795.418,796.825 
			822.132,796.825 801.832,815.389 809.312,843.568 784.871,827.81 762.031,843.568 768.71,815.389 		"/>
		<polygon id="_233010112" fill="#FFFFFF" points="58.441,856.659 85.417,856.659 95.302,828.343 106.251,856.659 132.968,856.659 
			112.662,875.222 120.144,903.4 95.703,887.642 72.866,903.4 79.54,875.222 		"/>
		<polygon id="_233010400" fill="#FFFFFF" points="210.163,856.659 237.144,856.659 247.024,828.343 257.978,856.659 
			284.69,856.659 264.39,875.222 271.87,903.4 247.425,887.642 224.586,903.4 231.263,875.222 		"/>
		<polygon id="_233010616" fill="#FFFFFF" points="367.227,856.659 394.21,856.659 404.091,828.343 415.042,856.659 
			441.755,856.659 421.453,875.222 428.932,903.4 404.492,887.642 381.653,903.4 388.332,875.222 		"/>
		<polygon id="_233010568" fill="#FFFFFF" points="518.954,856.659 545.934,856.659 555.814,828.343 566.768,856.659 
			593.474,856.659 573.179,875.222 580.653,903.4 556.214,887.642 533.376,903.4 540.057,875.222 		"/>
		<polygon id="_233010688" fill="#FFFFFF" points="671.746,856.659 698.726,856.659 708.611,828.343 719.56,856.659 
			746.278,856.659 725.971,875.222 733.452,903.4 709.012,887.642 686.17,903.4 692.845,875.222 		"/>
		<polygon id="_233009224" fill="#FFFFFF" points="827.744,856.659 854.718,856.659 864.603,828.343 875.555,856.659 
			902.271,856.659 881.965,875.222 889.448,903.4 865.005,887.642 842.17,903.4 848.844,875.222 		"/>
		<polygon id="_233009200" fill="#FFFFFF" points="58.441,982.734 85.417,982.734 95.302,954.427 106.251,982.734 132.968,982.734 
			112.662,1001.306 120.144,1029.485 95.703,1013.723 72.866,1029.485 79.54,1001.306 		"/>
		<polygon id="_233009800" fill="#FFFFFF" points="210.163,982.734 237.144,982.734 247.024,954.427 257.978,982.734 
			284.69,982.734 264.39,1001.306 271.87,1029.485 247.425,1013.723 224.586,1029.485 231.263,1001.306 		"/>
		<polygon id="_233009728" fill="#FFFFFF" points="367.227,982.734 394.21,982.734 404.091,954.427 415.042,982.734 
			441.755,982.734 421.453,1001.306 428.932,1029.485 404.492,1013.723 381.653,1029.485 388.332,1001.306 		"/>
		<polygon id="_233009584" fill="#FFFFFF" points="518.954,982.734 545.934,982.734 555.814,954.427 566.768,982.734 
			593.474,982.734 573.179,1001.306 580.653,1029.485 556.214,1013.723 533.376,1029.485 540.057,1001.306 		"/>
		<polygon id="_233009488" fill="#FFFFFF" points="671.746,982.734 698.726,982.734 708.611,954.427 719.56,982.734 
			746.278,982.734 725.971,1001.306 733.452,1029.485 709.012,1013.723 686.17,1029.485 692.845,1001.306 		"/>
		<polygon id="_233009680" fill="#FFFFFF" points="827.744,982.734 854.718,982.734 864.603,954.427 875.555,982.734 
			902.271,982.734 881.965,1001.306 889.448,1029.485 865.005,1013.723 842.17,1029.485 848.844,1001.306 		"/>
		<polygon id="_233009752" fill="#FFFFFF" points="134.299,924.243 161.276,924.243 171.162,895.926 182.111,924.243 
			208.827,924.243 188.525,942.805 196.005,970.986 171.562,955.227 148.723,970.986 155.399,942.805 		"/>
		<polygon id="_233009848" fill="#FFFFFF" points="286.026,924.243 313.002,924.243 322.887,895.926 333.838,924.243 
			360.551,924.243 340.249,942.805 347.731,970.986 323.289,955.227 300.45,970.986 307.125,942.805 		"/>
		<polygon id="_233009536" fill="#FFFFFF" points="443.091,924.243 470.07,924.243 479.956,895.926 490.904,924.243 
			517.618,924.243 497.314,942.805 504.796,970.986 480.354,955.227 457.515,970.986 464.189,942.805 		"/>
		<polygon id="_233008720" fill="#FFFFFF" points="594.813,924.243 621.793,924.243 631.679,895.926 642.626,924.243 
			669.34,924.243 649.039,942.805 656.518,970.986 632.079,955.227 609.24,970.986 615.92,942.805 		"/>
		<polygon id="_233009104" fill="#FFFFFF" points="747.611,924.243 774.583,924.243 784.469,895.926 795.418,924.243 
			822.132,924.243 801.832,942.805 809.312,970.986 784.871,955.227 762.031,970.986 768.71,942.805 		"/>
	</g>
</g>
<rect fill="none" width="2048" height="2048"/>
</svg>
