<?xml version="1.0" encoding="utf-8"?>
<!-- Generator: Adobe Illustrator 16.0.0, SVG Export Plug-In . SVG Version: 6.00 Build 0)  -->
<!DOCTYPE svg PUBLIC "-//W3C//DTD SVG 1.1//EN" "http://www.w3.org/Graphics/SVG/1.1/DTD/svg11.dtd">
<svg version="1.1" id="Layer_1" xmlns="http://www.w3.org/2000/svg" xmlns:xlink="http://www.w3.org/1999/xlink" x="0px" y="0px"
	 width="2016px" height="1211.438px" viewBox="16.5 418.581 2016 1211.438" enable-background="new 16.5 418.581 2016 1211.438"
	 xml:space="preserve">
<g id="Layer_x0020_1">
	<g id="_233009080">
		<rect id="_233013736" x="16.5" y="418.581" fill="#EEEEEE" width="2015.999" height="1211.438"/>
		<polygon id="_233013136" fill="#BE2033" points="2032.5,511.761 823.835,511.761 823.835,418.581 2032.5,418.581 		"/>
		<polygon id="_233013616" fill="#BE2033" points="2032.5,694.928 823.835,694.928 823.835,601.747 2032.5,601.747 		"/>
		<polygon id="_233013544" fill="#BE2033" points="2032.5,878.625 823.835,878.625 823.835,785.441 2032.5,785.441 		"/>
		<polygon id="_233013640" fill="#BE2033" points="2032.5,1059.122 823.835,1059.122 823.835,965.941 2032.5,965.941 		"/>
		<polygon id="_233012896" fill="#BE2033" points="2032.5,1239.616 16.5,1239.616 16.5,1146.429 2032.5,1146.429 		"/>
		<polygon id="_233012272" fill="#BE2033" points="2032.5,1432.895 16.5,1432.895 16.5,1339.721 2032.5,1339.721 		"/>
		<polygon id="_233012728" fill="#BE2033" points="2032.5,1630.02 16.5,1630.02 16.5,1536.845 2032.5,1536.845 		"/>
		<polygon id="_233012464" fill="#212F64" points="942.869,1059.135 16.5,1059.135 16.5,418.581 942.869,418.581 		"/>
		<polygon id="_233012416" fill="#FFFFFF" points="58.441,472.808 85.417,472.808 95.302,444.493 106.251,472.808 132.968,472.808 
			112.662,491.371 120.144,519.552 95.703,503.791 72.866,519.552 79.54,491.371 		"/>
		<polygon id="_233012584" fill="#FFFFFF" points="210.163,472.808 237.144,472.808 247.024,444.493 257.978,472.808 
			284.69,472.808 264.39,491.371 271.87,519.552 247.425,503.791 224.586,519.552 231.263,491.371 		"/>
		<polygon id="_233012512" fill="#FFFFFF" points="367.227,472.808 394.21,472.808 404.091,444.493 415.042,472.808 
			441.755,472.808 421.453,491.371 428.932,519.552 404.492,503.791 381.653,519.552 388.332,491.371 		"/>
		<polygon id="_233012680" fill="#FFFFFF" points="518.954,472.808 545.934,472.808 555.814,444.493 566.768,472.808 
			593.474,472.808 573.179,491.371 580.653,519.552 556.214,503.791 533.376,519.552 540.057,491.371 		"/>
		<polygon id="_233012824" fill="#FFFFFF" points="671.746,472.808 698.726,472.808 708.611,444.493 719.56,472.808 
			746.278,472.808 725.971,491.371 733.452,519.552 709.012,503.791 686.17,519.552 692.845,491.371 		"/>
		<polygon id="_233012488" fill="#FFFFFF" points="827.744,472.808 854.718,472.808 864.603,444.493 875.555,472.808 
			902.271,472.808 881.965,491.371 889.448,519.552 865.005,503.791 842.17,519.552 848.844,491.371 		"/>
		<polygon id="_233011528" fill="#FFFFFF" points="134.299,540.387 161.276,540.387 171.162,512.071 182.111,540.387 
			208.827,540.387 188.525,558.952 196.005,587.135 171.562,571.375 148.723,587.135 155.399,558.952 		"/>
		<polygon id="_233011840" fill="#FFFFFF" points="286.026,540.387 313.002,540.387 322.887,512.071 333.838,540.387 
			360.551,540.387 340.249,558.952 347.731,587.135 323.289,571.375 300.45,587.135 307.125,558.952 		"/>
		<polygon id="_233012056" fill="#FFFFFF" points="443.091,540.387 470.07,540.387 479.956,512.071 490.904,540.387 
			517.618,540.387 497.314,558.952 504.796,587.135 480.354,571.375 457.515,587.135 464.189,558.952 		"/>
		<polygon id="_233011792" fill="#FFFFFF" points="594.813,540.387 621.793,540.387 631.679,512.071 642.626,540.387 
			669.34,540.387 649.039,558.952 656.518,587.135 632.079,571.375 609.24,587.135 615.92,558.952 		"/>
		<polygon id="_233011624" fill="#FFFFFF" points="747.611,540.387 774.583,540.387 784.469,512.071 795.418,540.387 
			822.132,540.387 801.832,558.952 809.312,587.135 784.871,571.375 762.031,587.135 768.71,558.952 		"/>
		<polygon id="_233011888" fill="#FFFFFF" points="58.441,599.957 85.417,599.957 95.302,571.639 106.251,599.957 132.968,599.957 
			112.662,618.52 120.144,646.698 95.703,630.939 72.866,646.698 79.54,618.52 		"/>
		<polygon id="_233011720" fill="#FFFFFF" points="210.163,599.957 237.144,599.957 247.024,571.639 257.978,599.957 
			284.69,599.957 264.39,618.52 271.87,646.698 247.425,630.939 224.586,646.698 231.263,618.52 		"/>
		<polygon id="_233011648" fill="#FFFFFF" points="367.227,599.957 394.21,599.957 404.091,571.639 415.042,599.957 
			441.755,599.957 421.453,618.52 428.932,646.698 404.492,630.939 381.653,646.698 388.332,618.52 		"/>
		<polygon id="_233011480" fill="#FFFFFF" points="518.954,599.957 545.934,599.957 555.814,571.639 566.768,599.957 
			593.474,599.957 573.179,618.52 580.653,646.698 556.214,630.939 533.376,646.698 540.057,618.52 		"/>
		<polygon id="_233012128" fill="#FFFFFF" points="671.746,599.957 698.726,599.957 708.611,571.639 719.56,599.957 
			746.278,599.957 725.971,618.52 733.452,646.698 709.012,630.939 686.17,646.698 692.845,618.52 		"/>
		<polygon id="_233012104" fill="#FFFFFF" points="827.744,599.957 854.718,599.957 864.603,571.639 875.555,599.957 
			902.271,599.957 881.965,618.52 889.448,646.698 865.005,630.939 842.17,646.698 848.844,618.52 		"/>
		<polygon id="_233011096" fill="#FFFFFF" points="134.299,667.537 161.276,667.537 171.162,639.222 182.111,667.537 
			208.827,667.537 188.525,686.101 196.005,714.281 171.562,698.523 148.723,714.281 155.399,686.101 		"/>
		<polygon id="_233010712" fill="#FFFFFF" points="286.026,667.537 313.002,667.537 322.887,639.222 333.838,667.537 
			360.551,667.537 340.249,686.101 347.731,714.281 323.289,698.523 300.45,714.281 307.125,686.101 		"/>
		<polygon id="_233010904" fill="#FFFFFF" points="443.091,667.537 470.07,667.537 479.956,639.222 490.904,667.537 
			517.618,667.537 497.314,686.101 504.796,714.281 480.354,698.523 457.515,714.281 464.189,686.101 		"/>
		<polygon id="_233010736" fill="#FFFFFF" points="594.813,667.537 621.793,667.537 631.679,639.222 642.626,667.537 
			669.34,667.537 649.039,686.101 656.518,714.281 632.079,698.523 609.24,714.281 615.92,686.101 		"/>
		<polygon id="_233011264" fill="#FFFFFF" points="747.611,667.537 774.583,667.537 784.469,639.222 795.418,667.537 
			822.132,667.537 801.832,686.101 809.312,714.281 784.871,698.523 762.031,714.281 768.71,686.101 		"/>
		<polygon id="_233011456" fill="#FFFFFF" points="58.441,729.244 85.417,729.244 95.302,700.926 106.251,729.244 132.968,729.244 
			112.662,747.806 120.144,775.985 95.703,760.226 72.866,775.985 79.54,747.806 		"/>
		<polygon id="_233011312" fill="#FFFFFF" points="210.163,729.244 237.144,729.244 247.024,700.926 257.978,729.244 
			284.69,729.244 264.39,747.806 271.87,775.985 247.425,760.226 224.586,775.985 231.263,747.806 		"/>
		<polygon id="_233011408" fill="#FFFFFF" points="367.227,729.244 394.21,729.244 404.091,700.926 415.042,729.244 
			441.755,729.244 421.453,747.806 428.932,775.985 404.492,760.226 381.653,775.985 388.332,747.806 		"/>
		<polygon id="_233011144" fill="#FFFFFF" points="518.954,729.244 545.934,729.244 555.814,700.926 566.768,729.244 
			593.474,729.244 573.179,747.806 580.653,775.985 556.214,760.226 533.376,775.985 540.057,747.806 		"/>
		<polygon id="_233011048" fill="#FFFFFF" points="671.746,729.244 698.726,729.244 708.611,700.926 719.56,729.244 
			746.278,729.244 725.971,747.806 733.452,775.985 709.012,760.226 686.17,775.985 692.845,747.806 		"/>
		<polygon id="_233010136" fill="#FFFFFF" points="827.744,729.244 854.718,729.244 864.603,700.926 875.555,729.244 
			902.271,729.244 881.965,747.806 889.448,775.985 865.005,760.226 842.17,775.985 848.844,747.806 		"/>
		<polygon id="_233009968" fill="#FFFFFF" points="134.299,796.825 161.276,796.825 171.162,768.51 182.111,796.825 
			208.827,796.825 188.525,815.389 196.005,843.568 171.562,827.81 148.723,843.568 155.399,815.389 		"/>
		<polygon id="_233010496" fill="#FFFFFF" points="286.026,796.825 313.002,796.825 322.887,768.51 333.838,796.825 
			360.551,796.825 340.249,815.389 347.731,843.568 323.289,827.81 300.45,843.568 307.125,815.389 		"/>
		<polygon id="_233010088" fill="#FFFFFF" points="443.091,796.825 470.07,796.825 479.956,768.51 490.904,796.825 517.618,796.825 
			497.314,815.389 504.796,843.568 480.354,827.81 457.515,843.568 464.189,815.389 		"/>
		<polygon id="_233010280" fill="#FFFFFF" points="594.813,796.825 621.793,796.825 631.679,768.51 642.626,796.825 669.34,796.825 
			649.039,815.389 656.518,843.568 632.079,827.81 609.24,843.568 615.92,815.389 		"/>
		<polygon id="_233010184" fill="#FFFFFF" points="747.611,796.825 774.583,796.825 784.469,768.51 795.418,796.825 
			822.132,796.825 801.832,815.389 809.312,843.568 784.871,827.81 762.031,843.568 768.71,815.389 		"/>
		<polygon id="_233010112" fill="#FFFFFF" points="58.441,856.659 85.417,856.659 95.302,828.343 106.251,856.659 132.968,856.659 
			112.662,875.222 120.144,903.4 95.703,887.642 72.866,903.4 79.54,875.222 		"/>
		<polygon id="_233010400" fill="#FFFFFF" points="210.163,856.659 237.144,856.659 247.024,828.343 257.978,856.659 
			284.69,856.659 264.39,875.222 271.87,903.4 247.425,887.642 224.586,903.4 231.263,875.222 		"/>
		<polygon id="_233010616" fill="#FFFFFF" points="367.227,856.659 394.21,856.659 404.091,828.343 415.042,856.659 
			441.755,856.659 421.453,875.222 428.932,903.4 404.492,887.642 381.653,903.4 388.332,875.222 		"/>
		<polygon id="_233010568" fill="#FFFFFF" points="518.954,856.659 545.934,856.659 555.814,828.343 566.768,856.659 
			593.474,856.659 573.179,875.222 580.653,903.4 556.214,887.642 533.376,903.4 540.057,875.222 		"/>
		<polygon id="_233010688" fill="#FFFFFF" points="671.746,856.659 698.726,856.659 708.611,828.343 719.56,856.659 
			746.278,856.659 725.971,875.222 733.452,903.4 709.012,887.642 686.17,903.4 692.845,875.222 		"/>
		<polygon id="_233009224" fill="#FFFFFF" points="827.744,856.659 854.718,856.659 864.603,828.343 875.555,856.659 
			902.271,856.659 881.965,875.222 889.448,903.4 865.005,887.642 842.17,903.4 848.844,875.222 		"/>
		<polygon id="_233009200" fill="#FFFFFF" points="58.441,982.734 85.417,982.734 95.302,954.427 106.251,982.734 132.968,982.734 
			112.662,1001.306 120.144,1029.485 95.703,1013.723 72.866,1029.485 79.54,1001.306 		"/>
		<polygon id="_233009800" fill="#FFFFFF" points="210.163,982.734 237.144,982.734 247.024,954.427 257.978,982.734 
			284.69,982.734 264.39,1001.306 271.87,1029.485 247.425,1013.723 224.586,1029.485 231.263,1001.306 		"/>
		<polygon id="_233009728" fill="#FFFFFF" points="367.227,982.734 394.21,982.734 404.091,954.427 415.042,982.734 
			441.755,982.734 421.453,1001.306 428.932,1029.485 404.492,1013.723 381.653,1029.485 388.332,1001.306 		"/>
		<polygon id="_233009584" fill="#FFFFFF" points="518.954,982.734 545.934,982.734 555.814,954.427 566.768,982.734 
			593.474,982.734 573.179,1001.306 580.653,1029.485 556.214,1013.723 533.376,1029.485 540.057,1001.306 		"/>
		<polygon id="_233009488" fill="#FFFFFF" points="671.746,982.734 698.726,982.734 708.611,954.427 719.56,982.734 
			746.278,982.734 725.971,1001.306 733.452,1029.485 709.012,1013.723 686.17,1029.485 692.845,1001.306 		"/>
		<polygon id="_233009680" fill="#FFFFFF" points="827.744,982.734 854.718,982.734 864.603,954.427 875.555,982.734 
			902.271,982.734 881.965,1001.306 889.448,1029.485 865.005,1013.723 842.17,1029.485 848.844,1001.306 		"/>
		<polygon id="_233009752" fill="#FFFFFF" points="134.299,924.243 161.276,924.243 171.162,895.926 182.111,924.243 
			208.827,924.243 188.525,942.805 196.005,970.986 171.562,955.227 148.723,970.986 155.399,942.805 		"/>
		<polygon id="_233009848" fill="#FFFFFF" points="286.026,924.243 313.002,924.243 322.887,895.926 333.838,924.243 
			360.551,924.243 340.249,942.805 347.731,970.986 323.289,955.227 300.45,970.986 307.125,942.805 		"/>
		<polygon id="_233009536" fill="#FFFFFF" points="443.091,924.243 470.07,924.243 479.956,895.926 490.904,924.243 
			517.618,924.243 497.314,942.805 504.796,970.986 480.354,955.227 457.515,970.986 464.189,942.805 		"/>
		<polygon id="_233008720" fill="#FFFFFF" points="594.813,924.243 621.793,924.243 631.679,895.926 642.626,924.243 
			669.34,924.243 649.039,942.805 656.518,970.986 632.079,955.227 609.24,970.986 615.92,942.805 		"/>
		<polygon id="_233009104" fill="#FFFFFF" points="747.611,924.243 774.583,924.243 784.469,895.926 795.418,924.243 
			822.132,924.243 801.832,942.805 809.312,970.986 784.871,955.227 762.031,970.986 768.71,942.805 		"/>
	</g>
</g>
<rect fill="none" width="2048" height="2048"/>
<g id="Layer_x0020_1_1_">
	<rect x="11.5" y="414.593" fill="#009B3A" width="2030.977" height="1220.437"/>
	<polygon fill="#FFE52B" points="212.412,1024.811 1026.991,561.998 1841.569,1024.811 1026.991,1487.624 	"/>
	<g id="_362417616">
		<path id="_362420760" fill="#005EAC" d="M1321.942,1024.811c0,162.965-132.061,295.063-294.959,295.063
			c-162.901,0-294.961-132.098-294.961-295.06c0-162.956,132.06-295.059,294.961-295.059c162.9,0,294.959,132.105,294.959,295.058
			V1024.811z"/>
		<path id="_362420112" fill="#FFFFFF" d="M1320.58,1074.95l-12.401,47.449c0,0-197.896-211.577-570.434-167.678l16.931-49.311
			C754.675,905.411,1084.238,850.892,1320.58,1074.95L1320.58,1074.95z"/>
		<polygon id="_362420256" fill="#F7FAFD" points="1121.991,920.967 1124.888,930.086 1134.249,930.086 1126.672,935.722 
			1129.568,944.84 1121.991,939.206 1114.415,944.84 1117.311,935.722 1109.722,930.086 1119.096,930.086 		"/>
		<polygon id="_362420616" fill="#F7FAFD" points="1238.641,1118.215 1241.536,1127.325 1250.898,1127.325 1243.321,1132.959 
			1246.217,1142.082 1238.641,1136.447 1231.052,1142.082 1233.961,1132.959 1226.384,1127.325 1235.744,1127.325 		"/>
		<polygon id="_362419776" fill="#F7FAFD" points="1034.379,1145.639 1037.275,1154.749 1046.649,1154.749 1039.061,1160.395 
			1041.97,1169.505 1034.379,1163.872 1026.804,1169.505 1029.711,1160.395 1022.123,1154.749 1031.497,1154.749 		"/>
		<polygon id="_362419608" fill="#F7FAFD" points="1188.118,1204.598 1190.563,1212.294 1198.458,1212.294 1192.07,1217.04 
			1194.518,1224.735 1188.118,1219.975 1181.73,1224.735 1184.177,1217.04 1177.79,1212.294 1185.685,1212.294 		"/>
		<polygon id="_362419320" fill="#F7FAFD" points="1230.191,1163.991 1232.639,1171.674 1240.531,1171.674 1234.132,1176.433 
			1236.578,1184.115 1230.191,1179.368 1223.805,1184.115 1226.238,1176.433 1219.852,1171.674 1227.746,1171.674 		"/>
		<polygon id="_362419368" fill="#F7FAFD" points="1243.533,1147.198 1245.979,1154.895 1253.873,1154.895 1247.486,1159.64 
			1249.919,1167.336 1243.533,1162.578 1237.147,1167.336 1239.579,1159.64 1233.193,1154.895 1241.1,1154.895 		"/>
		<polygon id="_362419968" fill="#F7FAFD" points="1106.021,1005.585 1108.042,1011.985 1114.627,1011.985 1109.298,1015.952 
			1111.335,1022.352 1106.021,1018.399 1100.69,1022.352 1102.727,1015.952 1097.411,1011.985 1103.969,1011.985 		"/>
		<polygon id="_362419560" fill="#F7FAFD" points="1030.215,1058.396 1032.555,1065.88 1040.145,1065.88 1033.996,1070.507 
			1036.362,1077.991 1030.215,1073.364 1024.066,1077.991 1026.406,1070.507 1020.271,1065.88 1027.861,1065.88 		"/>
		<polygon id="_362419704" fill="#F7FAFD" points="923.756,1025.273 926.107,1032.757 933.689,1032.757 927.545,1037.386 
			929.898,1044.87 923.756,1040.242 917.618,1044.87 919.965,1037.386 913.822,1032.757 921.403,1032.757 		"/>
		<polygon id="_362419944" fill="#F7FAFD" points="814.994,1080.134 817.953,1089.668 827.501,1089.668 819.76,1095.551 
			822.73,1105.085 814.994,1099.188 807.26,1105.085 810.216,1095.551 802.478,1089.668 812.024,1089.668 		"/>
		<polygon id="_362420040" fill="#F7FAFD" points="786.907,957.193 789.866,966.721 799.413,966.721 791.678,972.612 
			794.643,982.146 786.907,976.253 779.172,982.146 782.13,972.612 774.396,966.721 783.943,966.721 		"/>
		<polygon id="_362419488" fill="#F7FAFD" points="918.181,1171.197 921.051,1180.307 930.335,1180.307 922.814,1185.954 
			925.695,1195.078 918.181,1189.444 910.66,1195.078 913.537,1185.954 906.01,1180.307 915.299,1180.307 		"/>
		<polygon id="_362418720" fill="#F7FAFD" points="1065.465,1089.549 1067.819,1097.033 1075.396,1097.033 1069.247,1101.66 
			1071.614,1109.146 1065.465,1104.517 1059.33,1109.146 1061.67,1101.66 1055.522,1097.033 1063.112,1097.033 		"/>
		<polygon id="_362419080" fill="#F7FAFD" points="1125.999,1219.908 1128.034,1226.296 1134.605,1226.296 1129.278,1230.263 
			1131.314,1236.661 1125.999,1232.708 1120.669,1236.661 1122.705,1230.263 1117.392,1226.296 1123.962,1226.296 		"/>
		<polygon id="_362418600" fill="#F7FAFD" points="1143.941,1179.249 1145.978,1185.637 1152.549,1185.637 1147.22,1189.604 
			1149.269,1196.003 1143.941,1192.049 1138.626,1196.003 1140.648,1189.604 1135.334,1185.637 1141.905,1185.637 		"/>
		<polygon id="_362418888" fill="#F7FAFD" points="1003.821,1088.372 1005.859,1094.758 1012.43,1094.758 1007.102,1098.725 
			1009.15,1105.125 1003.821,1101.171 998.507,1105.125 1000.542,1098.725 995.218,1094.758 1001.787,1094.758 		"/>
		<polygon id="_362419272" fill="#F7FAFD" points="843.274,1066.581 844.966,1072.016 850.418,1072.016 846.001,1075.374 
			847.699,1080.822 843.274,1077.45 838.867,1080.822 840.552,1075.374 836.135,1072.016 841.588,1072.016 		"/>
		<polygon id="_362419248" fill="#F7FAFD" points="1188.012,1179.249 1190.049,1185.637 1196.62,1185.637 1191.305,1189.604 
			1193.34,1196.003 1188.012,1192.049 1182.696,1196.003 1184.732,1189.604 1179.404,1185.637 1185.976,1185.637 		"/>
		<polygon id="_362418840" fill="#F7FAFD" points="1188.038,1229.43 1189.809,1234.995 1195.522,1234.995 1190.895,1238.447 
			1192.666,1244.015 1188.038,1240.575 1183.41,1244.015 1185.182,1238.447 1180.555,1234.995 1186.267,1234.995 		"/>
		<polygon id="_362419008" fill="#F7FAFD" points="874.64,1108.509 876.926,1115.9 884.326,1115.9 878.337,1120.463 
			880.626,1127.854 874.64,1123.292 868.645,1127.854 870.93,1120.463 864.944,1115.9 872.343,1115.9 		"/>
		<polygon id="_362418960" fill="#F7FAFD" points="777.665,1108.509 779.948,1115.9 787.347,1115.9 781.36,1120.463 
			783.652,1127.854 777.665,1123.292 771.668,1127.854 773.955,1120.463 767.968,1115.9 775.367,1115.9 		"/>
		<polygon id="_362419104" fill="#F7FAFD" points="1024.728,1112.08 1026.512,1117.646 1032.224,1117.646 1027.597,1121.098 
			1029.355,1126.664 1024.728,1123.226 1020.1,1126.664 1021.871,1121.098 1017.243,1117.646 1022.955,1117.646 		"/>
		<polygon id="_362419128" fill="#F7FAFD" points="866.772,1147.384 868.541,1152.938 874.254,1152.938 869.625,1156.388 
			871.399,1161.955 866.772,1158.518 862.138,1161.955 863.907,1156.388 859.283,1152.938 864.998,1152.938 		"/>
		<polygon id="_362418504" fill="#F7FAFD" points="1277.964,1123.874 1279.736,1129.439 1285.448,1129.439 1280.821,1132.892 
			1282.592,1138.459 1277.964,1135.02 1273.323,1138.459 1275.109,1132.892 1270.481,1129.439 1276.192,1129.439 		"/>
		<polygon id="_362418264" fill="#F7FAFD" points="1210.054,1179.249 1212.091,1185.637 1218.661,1185.637 1213.332,1189.604 
			1215.383,1196.003 1210.054,1192.049 1204.725,1196.003 1206.761,1189.604 1201.446,1185.637 1208.019,1185.637 		"/>
		<polygon id="_362418312" fill="#F7FAFD" points="1101.007,1177.478 1103.045,1183.877 1109.616,1183.877 1104.287,1187.844 
			1106.323,1194.244 1101.007,1190.291 1095.68,1194.244 1097.716,1187.844 1092.399,1183.877 1098.972,1183.877 		"/>
		<polygon id="_362418000" fill="#F7FAFD" points="1032.819,1241.633 1033.771,1244.688 1036.839,1244.688 1034.354,1246.578 
			1035.306,1249.634 1032.819,1247.742 1030.333,1249.634 1031.285,1246.578 1028.813,1244.688 1031.881,1244.688 		"/>
		<path id="_362418024" fill="#231F20" d="M780.009,924.585c0-2.677,0.431-4.929,1.279-6.749c0.638-1.339,1.503-2.543,2.605-3.609
			c1.098-1.065,2.303-1.854,3.615-2.37c1.742-0.694,3.746-1.042,6.02-1.042c4.118-0.001,7.417,1.202,9.884,3.607
			c2.475,2.403,3.714,5.75,3.714,10.038c0,4.247-1.229,7.572-3.685,9.971c-2.452,2.403-5.731,3.6-9.835,3.6
			c-4.159-0.001-7.46-1.193-9.913-3.581C781.238,932.063,780.009,928.776,780.009,924.585L780.009,924.585z M785.811,924.404
			c0,2.985,0.733,5.245,2.204,6.786c1.46,1.538,3.321,2.306,5.581,2.306c2.255,0,4.111-0.76,5.559-2.288
			c1.449-1.531,2.171-3.818,2.171-6.871c0-3.019-0.704-5.269-2.115-6.758c-1.405-1.485-3.277-2.227-5.615-2.227
			c-2.329,0-4.214,0.756-5.641,2.253C786.521,919.108,785.811,921.377,785.811,924.404z"/>
		<path id="_362418360" fill="#231F20" d="M1081.821,970.481c0-2.676,0.424-4.928,1.272-6.747c0.634-1.34,1.51-2.545,2.605-3.61
			c1.097-1.065,2.304-1.854,3.615-2.37c1.74-0.695,3.746-1.042,6.026-1.042c4.111,0,7.411,1.204,9.885,3.608
			c2.468,2.406,3.708,5.752,3.708,10.037c0,4.248-1.23,7.574-3.681,9.973c-2.458,2.4-5.73,3.601-9.84,3.601
			c-4.153,0-7.46-1.195-9.905-3.583C1083.046,977.96,1081.821,974.672,1081.821,970.481L1081.821,970.481z M1087.612,970.302
			c0,2.985,0.737,5.246,2.208,6.785c1.461,1.538,3.322,2.307,5.583,2.307c2.258,0,4.114-0.762,5.558-2.289
			c1.448-1.531,2.171-3.817,2.171-6.87c0-3.019-0.706-5.271-2.11-6.757c-1.411-1.486-3.284-2.229-5.618-2.229
			c-2.332,0-4.216,0.755-5.637,2.254C1088.335,965.006,1087.612,967.275,1087.612,970.302z"/>
		<path id="_362417928" fill="#231F20" d="M817.942,937.085v-27.497h13.922c3.498,0,6.049,0.244,7.642,0.736
			c1.58,0.494,2.848,1.372,3.805,2.63c0.954,1.265,1.433,2.704,1.433,4.331c0,2.058-0.72,3.763-2.159,5.104
			c-1.438,1.344-3.592,2.187-6.457,2.538c1.427,0.704,2.611,1.474,3.537,2.314c0.926,0.837,2.182,2.328,3.764,4.469l3.999,5.374
			h-7.921l-4.761-5.992c-1.702-2.146-2.871-3.497-3.498-4.05c-0.628-0.558-1.29-0.941-1.994-1.143
			c-0.7-0.213-1.821-0.314-3.34-0.314l-1.349-0.002v11.501H817.942L817.942,937.085z M824.565,921.187h4.891
			c3.184,0,5.163-0.113,5.956-0.336c0.783-0.222,1.404-0.609,1.851-1.157c0.45-0.55,0.678-1.232,0.678-2.055
			c0-0.927-0.299-1.672-0.888-2.234c-0.594-0.566-1.416-0.923-2.496-1.077c-0.533-0.064-2.143-0.093-4.827-0.093h-5.166V921.187z"/>
		<path id="_362418168" fill="#231F20" d="M1045.646,967.242l8.652-26.103l13.225,4.385c3.311,1.1,5.65,2.137,7.006,3.105
			c1.351,0.965,2.275,2.196,2.795,3.697c0.513,1.501,0.506,3.014-0.007,4.558c-0.644,1.954-1.872,3.344-3.657,4.166
			c-1.785,0.822-4.094,0.945-6.926,0.378c1.13,1.117,2.017,2.22,2.628,3.307c0.618,1.089,1.339,2.894,2.166,5.428l2.104,6.362
			l-7.514-2.498l-2.634-7.181c-0.942-2.576-1.62-4.225-2.05-4.948c-0.425-0.727-0.926-1.3-1.531-1.713
			c-0.589-0.421-1.626-0.872-3.069-1.351l-1.276-0.422l-3.622,10.914L1045.646,967.242L1045.646,967.242z M1056.938,954.237
			l4.64,1.538c3.024,1.002,4.941,1.521,5.762,1.556c0.816,0.035,1.521-0.135,2.117-0.516c0.604-0.377,1.029-0.955,1.292-1.735
			c0.289-0.88,0.243-1.678-0.142-2.4c-0.381-0.723-1.053-1.323-2.021-1.808c-0.495-0.229-2.005-0.764-4.562-1.608l-4.903-1.625
			L1056.938,954.237z"/>
		<path id="_362417880" fill="#231F20" d="M1146.109,1005.876l12.86-24.313l12.306,6.517c3.086,1.632,5.224,3.036,6.402,4.222
			c1.169,1.172,1.88,2.538,2.143,4.103c0.255,1.565,0,3.058-0.761,4.497c-0.963,1.818-2.402,2.991-4.295,3.498
			c-1.902,0.518-4.199,0.258-6.894-0.766c0.933,1.29,1.62,2.518,2.044,3.691c0.43,1.179,0.836,3.08,1.233,5.713l1.026,6.622
			l-7.003-3.701l-1.405-7.521c-0.507-2.693-0.897-4.435-1.201-5.217c-0.297-0.788-0.694-1.432-1.229-1.946
			c-0.516-0.512-1.454-1.129-2.803-1.833l-1.191-0.634l-5.376,10.166L1146.109,1005.876L1146.109,1005.876z M1159.398,994.924
			l4.319,2.281c2.821,1.488,4.627,2.32,5.425,2.485c0.801,0.172,1.526,0.116,2.178-0.153c0.656-0.276,1.174-0.777,1.559-1.499
			c0.425-0.821,0.518-1.616,0.26-2.392c-0.26-0.777-0.827-1.482-1.698-2.116c-0.452-0.308-1.854-1.085-4.23-2.341l-4.565-2.419
			L1159.398,994.924L1159.398,994.924z"/>
		<path id="_362418336" fill="#231F20" d="M854.926,909.999h11.443c2.577,0,4.545,0.178,5.895,0.528
			c1.825,0.477,3.378,1.328,4.679,2.551c1.293,1.224,2.285,2.718,2.957,4.49c0.679,1.768,1.02,3.957,1.02,6.55
			c0,2.278-0.32,4.247-0.953,5.899c-0.776,2.015-1.879,3.646-3.321,4.893c-1.086,0.946-2.552,1.678-4.398,2.211
			c-1.382,0.389-3.229,0.583-5.542,0.583h-11.779V909.999z M861.18,914.682v18.337h4.693c1.757,0,3.02-0.09,3.795-0.265
			c1.02-0.226,1.868-0.61,2.541-1.15c0.666-0.539,1.217-1.433,1.641-2.672c0.431-1.237,0.64-2.932,0.64-5.073
			c0-2.139-0.209-3.783-0.64-4.928c-0.423-1.147-1.02-2.037-1.779-2.681c-0.766-0.644-1.735-1.079-2.909-1.304
			c-0.875-0.175-2.599-0.264-5.156-0.264H861.18L861.18,914.682z"/>
		<polygon id="_362417232" fill="#231F20" points="890.742,938.63 891.895,910.948 914.824,911.906 914.633,916.585 
			897.959,915.888 897.706,922.028 913.194,922.676 912.996,927.36 897.508,926.711 897.194,934.21 914.488,934.932 914.29,939.613 
					"/>
		<polygon id="_362417688" fill="#231F20" points="1177.143,1022.325 1190.062,997.811 1210.372,1008.508 1208.177,1012.646 
			1193.42,1004.872 1190.551,1010.319 1204.276,1017.54 1202.094,1021.69 1188.369,1014.458 1184.865,1021.096 1200.176,1029.174 
			1197.995,1033.313 		"/>
		<polygon id="_362417016" fill="#231F20" points="975.561,949.93 979.856,927.309 998.6,930.869 997.858,934.688 984.242,932.102 
			983.294,937.12 995.955,939.525 995.222,943.357 982.563,940.952 981.4,947.078 995.532,949.757 994.811,953.582 		"/>
		<polygon id="_362417064" fill="#231F20" points="924.445,942.002 927.64,914.477 936.097,915.463 938.96,934.822 946.146,916.625 
			954.642,917.612 951.445,945.138 946.206,944.528 948.703,922.856 940.608,943.88 935.193,943.249 932.224,920.945 
			929.684,942.608 		"/>
		<path id="_362417592" fill="#231F20" d="M1266.157,1067.004c0.997-2.484,2.235-4.411,3.703-5.778
			c1.09-1.008,2.346-1.796,3.761-2.38c1.417-0.579,2.833-0.86,4.242-0.85c1.869,0.011,3.861,0.431,5.978,1.284
			c3.815,1.536,6.43,3.885,7.825,7.041c1.389,3.146,1.288,6.716-0.315,10.689c-1.581,3.938-3.96,6.565-7.135,7.877
			c-3.173,1.312-6.659,1.206-10.469-0.326c-3.861-1.557-6.479-3.895-7.854-7.024
			C1264.505,1074.403,1264.587,1070.898,1266.157,1067.004L1266.157,1067.004z M1271.601,1069.005
			c-1.119,2.776-1.278,5.145-0.492,7.122c0.788,1.969,2.228,3.368,4.321,4.223c2.093,0.837,4.099,0.825,6.011-0.047
			c1.917-0.88,3.437-2.73,4.578-5.574c1.123-2.8,1.312-5.146,0.567-7.046c-0.755-1.907-2.215-3.295-4.381-4.165
			c-2.164-0.871-4.192-0.876-6.07-0.018C1274.245,1064.36,1272.731,1066.195,1271.601,1069.005L1271.601,1069.005z"/>
		<path id="_362417136" fill="#231F20" d="M1236.67,1045.849l5.311,3.025c-0.704,1.657-0.826,3.141-0.38,4.463
			c0.447,1.317,1.448,2.518,3.013,3.599c1.658,1.15,3.118,1.707,4.369,1.686c1.27-0.023,2.177-0.438,2.728-1.256
			c0.359-0.509,0.496-1.075,0.394-1.688c-0.106-0.604-0.492-1.344-1.181-2.224c-0.48-0.586-1.632-1.852-3.433-3.797
			c-2.348-2.496-3.78-4.556-4.287-6.187c-0.716-2.292-0.463-4.304,0.744-6.045c0.776-1.13,1.867-1.917,3.283-2.39
			c1.41-0.464,2.975-0.485,4.718-0.035c1.729,0.442,3.563,1.334,5.52,2.689c3.184,2.21,5.156,4.479,5.918,6.82
			c0.761,2.343,0.483,4.551-0.85,6.656l-5.25-3.41c0.567-1.285,0.656-2.431,0.292-3.427c-0.374-0.999-1.273-1.99-2.721-2.986
			c-1.489-1.035-2.834-1.576-4.05-1.626c-0.768-0.021-1.355,0.242-1.752,0.815c-0.358,0.523-0.415,1.146-0.167,1.867
			c0.311,0.921,1.554,2.502,3.686,4.739c2.132,2.231,3.625,4.049,4.436,5.416c0.821,1.377,1.24,2.771,1.251,4.175
			c0.021,1.416-0.457,2.828-1.42,4.216c-0.877,1.272-2.095,2.171-3.677,2.722c-1.564,0.539-3.284,0.557-5.141,0.07
			c-1.856-0.495-3.889-1.504-6.099-3.046c-3.223-2.227-5.245-4.584-6.071-7.068
			C1235.023,1051.144,1235.292,1048.548,1236.67,1045.849L1236.67,1045.849z"/>
		<path id="_362417112" fill="#231F20" d="M1209.021,1028.566l5.307,3.019c-0.706,1.657-0.827,3.141-0.38,4.468
			c0.447,1.311,1.455,2.519,3.019,3.592c1.658,1.151,3.112,1.708,4.367,1.692c1.265-0.021,2.172-0.44,2.724-1.261
			c0.359-0.51,0.501-1.07,0.392-1.686c-0.1-0.608-0.491-1.346-1.18-2.228c-0.473-0.578-1.624-1.852-3.432-3.791
			c-2.341-2.494-3.773-4.562-4.286-6.186c-0.717-2.294-0.463-4.309,0.747-6.05c0.773-1.125,1.87-1.918,3.285-2.387
			c1.405-0.468,2.977-0.483,4.716-0.033c1.727,0.44,3.559,1.333,5.521,2.689c3.18,2.21,5.152,4.479,5.91,6.815
			c0.768,2.336,0.486,4.551-0.842,6.654l-5.251-3.41c0.563-1.282,0.656-2.429,0.287-3.428c-0.374-0.995-1.272-1.987-2.721-2.991
			c-1.481-1.029-2.827-1.563-4.045-1.618c-0.771-0.028-1.354,0.242-1.752,0.814c-0.362,0.524-0.418,1.146-0.171,1.869
			c0.315,0.918,1.558,2.499,3.688,4.742c2.137,2.227,3.624,4.043,4.438,5.41c0.814,1.377,1.239,2.771,1.245,4.184
			c0.023,1.414-0.456,2.819-1.415,4.208c-0.882,1.272-2.095,2.17-3.676,2.727c-1.568,0.533-3.283,0.551-5.146,0.067
			c-1.857-0.497-3.884-1.505-6.094-3.042c-3.222-2.232-5.249-4.59-6.076-7.074
			C1207.375,1033.854,1207.645,1031.261,1209.021,1028.566L1209.021,1028.566z"/>
		<path id="_362417376" fill="#231F20" d="M1128.167,987.533l1.935-4.163l11.486,5.355l-4.588,9.849
			c-1.588,0.491-3.627,0.618-6.111,0.393c-2.484-0.221-4.814-0.843-6.991-1.857c-2.777-1.295-4.937-2.959-6.479-5.002
			c-1.565-2.044-2.386-4.315-2.48-6.812c-0.094-2.5,0.414-4.939,1.515-7.31c1.202-2.572,2.839-4.59,4.933-6.049
			c2.089-1.463,4.505-2.198,7.22-2.228c2.086-0.033,4.389,0.544,6.917,1.724c3.285,1.537,5.553,3.37,6.815,5.511
			c1.244,2.141,1.619,4.463,1.089,6.96l-5.739-1.533c0.183-1.381-0.077-2.655-0.772-3.839c-0.715-1.175-1.84-2.121-3.376-2.844
			c-2.347-1.09-4.519-1.265-6.545-0.525c-2.027,0.741-3.671,2.465-4.937,5.184c-1.373,2.933-1.702,5.461-0.977,7.584
			c0.714,2.12,2.205,3.712,4.475,4.771c1.117,0.526,2.341,0.84,3.67,0.963c1.316,0.115,2.518,0.066,3.603-0.139l1.471-3.14
			L1128.167,987.533z"/>
		<path id="_362417448" fill="#231F20" d="M1014.73,957.945l9.019-26.273l8.453,2.901c3.201,1.098,5.239,1.942,6.126,2.542
			c1.355,0.911,2.313,2.193,2.87,3.863c0.552,1.668,0.475,3.55-0.248,5.645c-0.557,1.617-1.317,2.872-2.265,3.774
			c-0.963,0.901-2,1.514-3.106,1.832c-1.113,0.325-2.166,0.426-3.163,0.31c-1.344-0.179-3.206-0.679-5.59-1.497l-3.428-1.176
			l-3.394,9.888l-5.273-1.81H1014.73z M1027.496,937.925l-2.572,7.5l2.887,0.99c2.076,0.711,3.515,1.049,4.309,1.012
			c0.794-0.037,1.497-0.279,2.088-0.733c0.602-0.451,1.046-1.064,1.313-1.847c0.329-0.959,0.317-1.852-0.035-2.669
			c-0.34-0.819-0.902-1.445-1.707-1.899c-0.588-0.334-1.835-0.827-3.735-1.479L1027.496,937.925L1027.496,937.925z"/>
	</g>
</g>
<g id="Layer_x0020_1_2_">
	<rect x="12.037" y="415.581" fill="#FF0000" width="504.996" height="1219.98"/>
	<rect x="517.034" y="415.581" fill="#EEEEEE" width="1020.224" height="1219.98"/>
	<rect x="1537.266" y="415.581" fill="#FF0000" width="504.996" height="1219.98"/>
	<path fill="#FF0000" d="M1389.414,997.299L1389.414,997.299z M854.939,726.928l35.201,194.563l-76.279-88.979l-25.821-30.119
		l-10.528,38.297l-12.718,46.267L661.6,864.238l-33.771-7.435l8.822,33.457l28.298,107.287l0.04-0.01l1.671,6.517
		c1.747,6.568,7.919,7.508,5.227,8.509l-1.9,0.826l-38.436,18.798l-29.009,14.187l24.632,20.84l185.686,157.096l0.167,0.164
		c0.564,0.468,1.031,1.228,1.322,2.147c0.238,0.751,0.303,1.484,0.136,2.071l0.056,0.016l-16.158,55.492l-8.93,30.673l31.645-3.825
		l183.628-22.197H1006l-21.149,194.738h84.595l-21.149-194.738h1.146l73.357,8.873c36.341,4.404,72.209,8.755,110.446,13.324
		l31.764,3.797l-9.047-30.728l-16.146-54.841l0.027-0.007c-0.221-0.875-0.16-1.815,0.12-2.689c0.28-0.864,0.754-1.611,1.354-2.106
		l0.165-0.164l185.638-157.096l24.632-20.846l-29.009-14.181l-38.451-18.798l-1.9-0.909c-2.765-1.023,3.497-1.75,5.114-7.901
		l1.891-7.284l28.296-107.035l8.844-33.456l-33.791,7.434l-103.254,22.718l-12.658-46.266l-10.488-38.33l-25.859,30.15
		l-76.273,88.924l35.063-194.506l7.796-43.248l-38.609,20.944l-48.738,26.439l-0.329,0.248l-1.368,0.736
		c-1.984,1.042-3.697,1.808-4.981,2.18l-67.063-130.269l-18.746-36.414l-18.759,36.414L941.35,734.261
		c-1.338-0.372-3.141-1.182-5.221-2.296c-0.866-0.465,0.547,0.263-1.045-0.652l-0.496-0.248l-48.919-26.439l-38.534-20.825
		L854.939,726.928L854.939,726.928z"/>
</g>
<g id="Layer_x0020_1_3_">
	<rect x="9.638" y="413.397" fill="#EEEEEE" width="2033.897" height="1222.191"/>
	<polygon fill="#CF142B" points="1371.489,855.288 2043.536,467.72 2043.536,413.397 1997.203,413.397 1230.932,855.288 	"/>
	<polygon fill="#CF142B" points="1339.763,1218.229 2043.536,1623.949 2043.536,1542.887 1480.361,1218.229 	"/>
	<polygon fill="#CF142B" points="9.638,506.437 611.667,855.288 752.331,855.288 9.638,425.293 	"/>
	<polygon fill="#CF142B" points="720.441,1218.229 9.638,1628.543 9.638,1635.588 138.051,1635.588 861.18,1218.229 	"/>
	<polygon fill="#00247D" points="1904.354,413.397 1192.239,413.397 1192.239,824.255 	"/>
	<polygon fill="#00247D" points="877.797,413.397 168.527,413.397 877.797,824.255 	"/>
	<polygon fill="#00247D" points="2043.536,855.288 2043.536,574.907 1560.434,855.288 	"/>
	<polygon fill="#00247D" points="2043.536,1495.639 2043.536,1218.229 1560.434,1218.229 	"/>
	<polygon fill="#00247D" points="208.781,1635.588 877.797,1635.588 877.797,1249.359 	"/>
	<polygon fill="#00247D" points="1192.239,1635.588 1863.373,1635.588 1192.239,1249.359 	"/>
	<polygon fill="#00247D" points="9.638,1218.229 9.638,1508.126 509.538,1218.229 	"/>
	<polygon fill="#00247D" points="9.638,855.288 509.538,855.288 9.638,564.966 	"/>
	<polygon fill="#CF142B" points="940.707,413.397 940.707,927.893 9.638,927.893 9.638,1145.799 940.707,1145.799 940.707,1635.588 
		1129.329,1635.588 1129.329,1145.799 2043.536,1145.799 2043.536,927.893 1129.329,927.893 1129.329,413.397 	"/>
</g>
<g id="Layer_x0020_1_4_">
	<rect x="7.349" y="415.133" fill="#74ACDF" width="2034.156" height="407.234"/>
	<rect x="7.349" y="822.367" fill="#EEEEEE" width="2034.156" height="407.233"/>
	<rect x="7.349" y="1229.599" fill="#74ACDF" width="2034.156" height="407.233"/>
	<path fill="#F6B40E" d="M1016.707,1029.188l69.556,151.552c0,0,1.193,2.901,3.128,2.101s0.74-3.688,0.74-3.688l-57.979-156.363
		L1016.707,1029.188z M1015.035,1088.157c-0.846,23.05,13.336,35.727,11.484,56.307c-1.847,20.579,9.455,32.22,12.07,40.229
		c2.626,7.996-2.829,12.782-0.48,13.927c2.354,1.137,7.511-5.178,5.828-16.565c-1.683-11.377-10.314-14.756-8.284-39.894
		c2.029-25.142-10.292-31.003-7.295-53.933L1015.035,1088.157L1015.035,1088.157z"/>
	<path fill="#85340A" d="M1017.938,1028.62l24.483,53.344l0.04-0.315l2.684,0.349c-0.229,1.755-0.365,3.409-0.423,4.979
		l42.771,93.193l0.026,0.06c0.002,0.004,0.668,1.637,1.355,1.352c0.671-0.276-0.001-1.928-0.002-1.931l-0.016-0.032l-57.979-156.362
		l2.547-0.945l57.979,156.363l-0.004,0.002c0.15,0.383,1.539,4.156-1.495,5.412c-3.019,1.248-4.72-2.44-4.886-2.818l-0.005-0.01
		l-0.007-0.012l-40-87.156c0.605,5.024,1.993,9.251,3.412,13.58c2.48,7.562,5.062,15.428,4.032,28.189
		c-1.313,16.257,1.922,23.196,4.738,29.238c1.522,3.27,2.934,6.295,3.535,10.352c0.886,6.017-0.06,10.735-1.538,13.797
		c-0.607,1.257-1.319,2.263-2.042,2.98c-0.826,0.824-1.719,1.317-2.556,1.441c-0.569,0.084-1.121,0.008-1.626-0.235
		c-2.055-0.999-1.528-2.56-0.712-4.956c0.755-2.222,1.884-5.539,0.494-9.772c-0.664-2.034-1.978-4.414-3.487-7.15
		c-4.253-7.712-10.026-18.18-8.643-33.613c0.898-10.012-2.147-18.199-5.308-26.697c-3.248-8.729-6.612-17.777-6.182-29.541
		l2.706,0.097c-0.411,11.229,2.857,20.021,6.013,28.499c3.27,8.789,6.421,17.26,5.467,27.876
		c-1.31,14.609,4.237,24.667,8.325,32.075c1.571,2.853,2.94,5.329,3.686,7.617c1.671,5.087,0.368,8.916-0.503,11.479
		c-0.35,1.026-0.771,1.603-0.677,1.647l0.043-0.011h0.005c0.271-0.038,0.635-0.27,1.043-0.676c0.519-0.515,1.043-1.268,1.513-2.24
		c1.28-2.652,2.092-6.812,1.293-12.223c-0.539-3.655-1.874-6.513-3.311-9.602c-2.958-6.342-6.354-13.63-4.982-30.597
		c0.986-12.231-1.507-19.833-3.905-27.138c-2.07-6.313-4.073-12.417-3.85-20.99l-26.515-57.773L1017.938,1028.62L1017.938,1028.62z"
		/>
	<path fill="#F6B40E" d="M1016.058,1025.984l6.277,166.641c0,0-0.009,3.128,2.09,3.141c2.088,0,2.088-3.141,2.088-3.141
		l6.265-166.641H1016.058z M991.96,1079.832c-9.609,20.959-1.363,38.104-10.947,56.401c-9.585,18.312-3.594,33.389-4.238,41.793
		c-0.634,8.402-7.507,10.731-5.78,12.687c1.746,1.948,8.917-1.92,11.724-13.082c2.807-11.146-3.878-17.583,7.615-40.023
		c11.496-22.453,2.353-32.577,13.907-52.607L991.96,1079.832L991.96,1079.832z"/>
	<path fill="#85340A" d="M1018.496,1025.905l2.222,58.958l2.361,1.358c-0.824,1.428-1.535,2.806-2.154,4.141l3.497,92.793
		l5.915-157.25l4.886,0.171l-6.264,166.554h0.008c0,0.016-0.006,5.58-4.543,5.584h-0.009c-4.564-0.026-4.536-5.567-4.536-5.583
		h0.008l-3.209-85.135c-0.096,1.074-0.178,2.149-0.26,3.23c-0.609,8.031-1.247,16.393-7.188,27.998
		c-7.297,14.245-6.974,21.744-6.69,28.273c0.159,3.697,0.308,7.118-0.727,11.233c-1.537,6.116-4.342,10.298-7.01,12.688
		c-1.143,1.025-2.299,1.756-3.354,2.19c-1.307,0.54-2.561,0.669-3.604,0.407c-0.765-0.191-1.429-0.583-1.951-1.166l-0.009-0.012
		c-2.152-2.433-0.821-3.951,1.238-6.29l0.004,0.003c1.45-1.651,3.617-4.12,3.924-8.2c0.156-2.045-0.141-4.69-0.484-7.732
		c-0.999-8.895-2.354-20.97,4.997-35.012c4.546-8.68,4.863-17.285,5.19-26.215c0.344-9.411,0.704-19.171,5.7-30.069l4.445,2.031
		c-4.588,10.012-4.931,19.274-5.258,28.21c-0.347,9.492-0.687,18.647-5.744,28.305c-6.65,12.707-5.39,23.94-4.462,32.212
		c0.369,3.29,0.691,6.153,0.502,8.634c-0.12,1.591-0.425,2.987-0.844,4.22c0.762-1.517,1.443-3.308,1.967-5.392
		c0.868-3.454,0.736-6.52,0.594-9.835c-0.311-7.125-0.664-15.309,7.224-30.708c5.479-10.703,6.08-18.574,6.654-26.137
		c0.506-6.661,0.995-13.099,4.463-20.979l-2.386-63.308L1018.496,1025.905L1018.496,1025.905z M1024.428,1193.048
		c-0.1,0.146-0.147,0.276,0,0.279C1024.579,1193.324,1024.531,1193.193,1024.428,1193.048z"/>
	<path fill="#F6B40E" d="M1016.707,1022.779l-57.979,156.35c0,0-1.207,2.901,0.728,3.702c1.935,0.8,3.128-2.1,3.128-2.1
		l69.567-151.553L1016.707,1022.779z M973.831,1063.293c-16.89,15.709-15.83,34.688-31.693,47.938
		c-15.862,13.238-16.105,29.464-19.911,36.982c-3.808,7.508-11.052,7.041-10.196,9.502c0.863,2.472,8.98,1.646,15.843-7.591
		c6.852-9.23,3.139-17.729,22.348-34.07c19.207-16.341,14.646-29.185,32.983-43.284L973.831,1063.293L973.831,1063.293z"/>
	<path fill="#85340A" d="M1019.012,1023.639l-20.519,55.334l1.651,2.139c-1.296,0.999-2.474,1.991-3.55,2.98l-32.236,86.932
		l65.576-142.854l4.446,2.03l-69.519,151.446c-0.005,0.012-2.147,5.177-6.33,3.453h-0.009c-3.946-1.635-2.309-6.229-2.083-6.811
		l-0.005-0.001l29.662-79.99c-0.503,0.965-0.995,1.934-1.487,2.907c-3.637,7.188-7.423,14.665-17.356,23.115
		c-12.194,10.373-14.764,17.429-16.998,23.57c-1.262,3.47-2.433,6.681-4.967,10.097c-3.778,5.086-7.982,7.875-11.364,9.053
		c-1.434,0.499-2.771,0.725-3.908,0.723c-1.415-0.005-2.618-0.364-3.48-1.006c-0.64-0.478-1.104-1.092-1.362-1.831l-0.002,0.001
		c-1.067-3.06,0.746-3.963,3.547-5.339l-0.001-0.002c1.975-0.972,4.929-2.426,6.777-6.068c0.934-1.847,1.668-4.387,2.509-7.308
		c2.483-8.606,5.854-20.295,18.017-30.443l-0.004-0.004c7.536-6.296,11.121-14.128,14.839-22.25
		c3.921-8.567,7.988-17.45,16.758-25.607l3.335,3.585c-8.077,7.51-11.932,15.93-15.649,24.054
		c-3.96,8.649-7.776,16.988-16.14,23.976h-0.009c-11.015,9.188-14.146,20.041-16.452,28.032c-0.922,3.194-1.723,5.972-2.835,8.172
		c-0.734,1.448-1.568,2.635-2.445,3.625c1.306-1.114,2.641-2.525,3.939-4.274c2.111-2.843,3.164-5.731,4.299-8.853
		c2.439-6.701,5.242-14.4,18.433-25.622c9.156-7.789,12.725-14.833,16.149-21.6c3.02-5.964,5.94-11.733,12.157-17.689l22.019-59.377
		l4.599,1.706V1023.639z M960.488,1180.313c-0.149,0.1-0.234,0.202-0.089,0.263l-0.001,0.003
		C960.53,1180.628,960.53,1180.487,960.488,1180.313L960.488,1180.313z"/>
	<path fill="#F6B40E" d="M1018.509,1020.078l-113.393,122.26c0,0-2.222,2.222-0.74,3.701c1.479,1.468,3.69-0.739,3.69-0.739
		l122.271-113.4L1018.509,1020.078z M963.392,1041.107c-21.616,8.034-27.905,25.987-47.626,32.148
		c-19.734,6.169-26.154,21.066-32.542,26.545c-6.398,5.492-12.906,2.284-13.057,4.884c-0.156,2.614,7.662,4.954,17.535-0.952
		c9.87-5.898,9.68-15.173,33.686-22.92c24.006-7.75,24.695-21.37,47.033-27.371L963.392,1041.107L963.392,1041.107z"/>
	<path fill="#85340A" d="M1020.296,1021.746l-40.118,43.258l0.701,2.624c-1.584,0.425-3.056,0.894-4.431,1.396l-63.085,68.019
		l115.302-106.938l3.334,3.585L909.798,1147.03l0.001,0.001c-0.012,0.012-3.929,3.933-7.15,0.741h-0.009
		c-3.21-3.21,0.731-7.16,0.741-7.171l0.002,0.002l57.94-62.473c-0.834,0.698-1.654,1.402-2.482,2.113
		c-6.113,5.249-12.475,10.713-24.88,14.719c-15.243,4.915-20.307,10.444-24.715,15.254c-2.502,2.731-4.817,5.256-8.46,7.433
		c-5.453,3.263-10.423,4.228-14.001,4.016c-1.517-0.091-2.828-0.394-3.861-0.826h-0.012c-1.284-0.538-2.249-1.335-2.804-2.261v-0.01
		c-0.41-0.688-0.605-1.434-0.559-2.206c0.195-3.239,2.213-3.375,5.325-3.574c2.195-0.142,5.474-0.353,8.587-3.025
		c1.54-1.32,3.198-3.398,5.107-5.79c5.582-6.999,13.169-16.504,28.296-21.234c9.353-2.922,15.664-8.785,22.211-14.869
		c6.895-6.406,14.045-13.049,25.294-17.23l1.705,4.58c-10.315,3.836-17.112,10.148-23.664,16.235
		c-6.964,6.472-13.678,12.71-24.088,15.962c-13.695,4.282-20.739,13.107-25.921,19.604c-2.063,2.587-3.856,4.833-5.758,6.463
		c-1.217,1.045-2.426,1.818-3.599,2.395c1.621-0.531,3.379-1.318,5.231-2.426c3.055-1.825,5.128-4.087,7.368-6.532
		c4.82-5.259,10.358-11.302,26.824-16.613c11.455-3.699,17.442-8.841,23.193-13.781c5.071-4.356,9.977-8.567,17.994-11.688
		l43.057-46.424L1020.296,1021.746L1020.296,1021.746z M906.298,1144.105c-0.174,0.031-0.299,0.088-0.189,0.197l-0.005,0.005
		C906.213,1144.408,906.268,1144.282,906.298,1144.105L906.298,1144.105z"/>
	<path fill="#85340A" d="M1034.97,1085.657c1.113,22.134,13.657,31.936,11.186,52.106c5.42-15.949-7.627-28.316-6.89-51.877
		L1034.97,1085.657z M1016.265,1027.585l47.643,104.089l-39.917-107.288L1016.265,1027.585L1016.265,1027.585z"/>
	<path fill="#85340A" d="M1011.317,1085.142c-7.435,20.879,0.407,34.74-9.598,52.431c11.103-12.666,3.786-29.081,13.489-50.564
		L1011.317,1085.142z M1016.271,1024.331l4.178,114.394l4.179-114.405L1016.271,1024.331z"/>
	<path fill="#85340A" d="M989.68,1075.633c-14.861,16.438-12.916,32.243-28.924,44.766c15.101-7.462,14.623-25.427,31.799-41.565
		L989.68,1075.633z M1017.532,1021.342l-39.917,107.292l47.64-104.094L1017.532,1021.342L1017.532,1021.342z"/>
	<path fill="#85340A" d="M973.325,1058.562c-20.016,9.494-24.279,24.83-43.856,30.273c16.809-1.098,23.24-17.88,45.29-26.214
		L973.325,1058.562z M1019.832,1019.061l-77.937,83.846l83.844-77.947L1019.832,1019.061z"/>
	<path fill="#F6B40E" d="M1021.223,1018.263l-151.553,69.555c0,0-2.899,1.195-2.1,3.13c0.803,1.934,3.688,0.739,3.688,0.739
		l156.364-57.98L1021.223,1018.263z M962.252,1016.591c-23.049-0.846-35.725,13.338-56.306,11.485
		c-20.579-1.851-32.22,9.454-40.229,12.068c-7.998,2.628-12.783-2.829-13.927-0.478c-1.137,2.353,5.178,7.508,16.564,5.825
		c11.377-1.682,14.757-10.314,39.895-8.282c25.142,2.029,31.001-10.292,53.933-7.293L962.252,1016.591L962.252,1016.591z"/>
	<path fill="#85340A" d="M1022.242,1020.488l-53.622,24.611l-0.35,2.688c-1.627-0.213-3.162-0.343-4.629-0.403l-84.374,38.723
		l147.507-54.696l1.705,4.6l-156.364,57.98l-0.001-0.006c-0.579,0.223-5.167,1.844-6.801-2.096v-0.01
		c-1.727-4.178,3.44-6.325,3.452-6.33l77.45-35.543c-1.049,0.329-2.091,0.67-3.139,1.014c-7.663,2.512-15.636,5.126-28.614,4.08
		c-15.968-1.287-22.767,1.882-28.688,4.642c-3.345,1.558-6.439,2.999-10.66,3.624c-6.258,0.922-11.205-0.079-14.429-1.636
		c-1.375-0.665-2.48-1.45-3.28-2.256c-0.992-0.997-1.59-2.098-1.746-3.161h-0.001c-0.118-0.787-0.008-1.552,0.334-2.262
		c1.425-2.932,3.342-2.28,6.292-1.275c2.083,0.708,5.194,1.766,9.082,0.489c1.938-0.631,4.275-1.922,6.959-3.402
		c7.833-4.322,18.467-10.19,34.239-8.772c9.767,0.878,17.846-2.126,26.222-5.244c8.83-3.285,17.983-6.69,29.959-6.251l-0.172,4.886
		c-11.016-0.403-19.705,2.827-28.081,5.944c-8.907,3.314-17.494,6.509-28.352,5.532c-14.276-1.284-24.17,4.175-31.456,8.196
		c-2.9,1.601-5.423,2.993-7.804,3.77c-1.523,0.501-2.937,0.754-4.244,0.836c1.702,0.128,3.629,0.073,5.768-0.242
		c3.497-0.518,6.286-1.818,9.299-3.222c6.465-3.014,13.891-6.475,31.145-5.081c12.013,0.97,19.51-1.491,26.714-3.853
		c6.351-2.085,12.495-4.098,21.11-3.91l57.542-26.409l2.03,4.445H1022.242z M870.586,1090.092c0,0-0.271-0.119-0.49-0.169
		c-0.099,0.145-0.199,0.231-0.259,0.089l-0.004,0.001l0.004,0.008l-2.262,0.931l-2.262,0.928 M870.096,1089.923
		c-0.169-0.039-0.309-0.039-0.263,0.09 M868.765,1085.549l0.911,2.271l0.658,1.643l0.252,0.63"/>
	<path fill="#F6B40E" d="M1024.428,1017.614l-166.64,6.278c0,0-3.129-0.013-3.143,2.09c0,2.089,3.143,2.089,3.143,2.089
		l166.64,6.265V1017.614z M970.582,993.516c-20.961-9.612-38.105-1.362-56.404-10.945c-18.31-9.587-33.389-3.596-41.791-4.24
		c-8.405-0.633-10.733-7.507-12.688-5.778c-1.946,1.745,1.921,8.917,13.081,11.723c11.149,2.806,17.584-3.877,40.027,7.616
		c22.453,11.495,32.575,2.353,52.605,13.906L970.582,993.516L970.582,993.516z"/>
	<path fill="#85340A" d="M1024.521,1020.064l-58.966,2.222l-1.356,2.36c-1.427-0.822-2.803-1.534-4.137-2.153l-92.775,3.496
		l157.233,5.915l-0.172,4.888l-166.555-6.266v0.008c-0.016,0-5.593,0-5.593-4.541c0-4.573,5.578-4.546,5.593-4.546v0.008
		l85.147-3.21c-1.081-0.096-2.161-0.177-3.246-0.26c-8.028-0.609-16.387-1.244-27.997-7.187
		c-14.247-7.298-21.747-6.974-28.275-6.691c-3.696,0.162-7.117,0.309-11.228-0.726c-6.119-1.537-10.301-4.344-12.692-7.014
		c-1.025-1.145-1.753-2.298-2.188-3.352c-0.542-1.31-0.67-2.557-0.408-3.601c0.191-0.766,0.583-1.43,1.167-1.951l0.012-0.009
		c2.433-2.152,3.954-0.821,6.292,1.238l-0.004,0.005c1.651,1.45,4.12,3.615,8.202,3.921c2.047,0.157,4.696-0.141,7.737-0.482
		c8.893-0.997,20.963-2.354,35.003,4.996c8.677,4.546,17.285,4.863,26.215,5.19c9.411,0.344,19.173,0.704,30.074,5.702l-2.03,4.445
		c-10.015-4.591-19.28-4.934-28.216-5.261c-9.492-0.347-18.647-0.687-28.303-5.743c-12.704-6.65-23.934-5.388-32.204-4.46
		c-3.29,0.367-6.155,0.689-8.638,0.5c-1.596-0.121-2.995-0.427-4.233-0.849c1.518,0.767,3.316,1.449,5.403,1.974
		c3.453,0.868,6.517,0.734,9.83,0.591c7.125-0.309,15.31-0.663,30.709,7.226c10.706,5.481,18.576,6.079,26.136,6.653
		c6.662,0.505,13.102,0.995,20.985,4.464l63.307-2.385L1024.521,1020.064L1024.521,1020.064z M857.391,1025.993
		c-0.15-0.11-0.284-0.162-0.284,0C857.107,1026.154,857.24,1026.102,857.391,1025.993z"/>
	<path fill="#F6B40E" d="M1027.633,1018.263l-156.351-57.979c0,0-2.901-1.206-3.702,0.728c-0.799,1.935,2.101,3.128,2.101,3.128
		l151.553,69.566L1027.633,1018.263z M987.117,975.387c-15.707-16.891-34.687-15.83-47.937-31.693
		c-13.238-15.862-29.461-16.104-36.981-19.912c-7.51-3.807-7.041-11.052-9.5-10.193c-2.474,0.86-1.649,8.978,7.59,15.841
		c9.229,6.851,17.727,3.138,34.069,22.347c16.341,19.207,29.184,14.644,43.284,32.979L987.117,975.387L987.117,975.387z"/>
	<path fill="#85340A" d="M1026.772,1020.568l-55.335-20.52l-2.14,1.652c-0.997-1.296-1.989-2.473-2.98-3.55l-86.93-32.236
		l142.854,65.576l-2.031,4.446l-151.447-69.519c-0.013-0.005-5.175-2.147-3.453-6.33v-0.009c1.633-3.946,6.229-2.309,6.811-2.083
		l0.001-0.005l79.988,29.662c-0.966-0.503-1.934-0.995-2.907-1.487c-7.186-3.637-14.663-7.424-23.114-17.356
		c-10.373-12.194-17.429-14.764-23.571-16.998c-3.47-1.262-6.678-2.433-10.094-4.966c-5.09-3.783-7.883-7.991-9.059-11.375v-0.011
		c-0.497-1.434-0.72-2.764-0.718-3.891c0.005-1.414,0.369-2.617,1.006-3.475c0.472-0.639,1.093-1.106,1.832-1.361l-0.001-0.004
		c3.064-1.068,3.96,0.744,5.337,3.546l0.002-0.001c0.971,1.975,2.425,4.929,6.069,6.777c1.836,0.929,4.386,1.666,7.319,2.513v0.002
		c8.604,2.479,20.286,5.854,30.431,18.01l0.004-0.004c6.296,7.536,14.128,11.124,22.251,14.842
		c8.568,3.921,17.452,7.988,25.608,16.755l-3.585,3.335c-7.511-8.074-15.931-11.93-24.054-15.646
		c-8.648-3.958-16.99-7.779-23.978-16.143v-0.009c-9.188-11.014-20.04-14.146-28.029-16.449h-0.009
		c-3.184-0.919-5.951-1.719-8.165-2.836c-1.447-0.736-2.639-1.57-3.626-2.447c1.116,1.308,2.527,2.643,4.275,3.942
		c2.843,2.108,5.73,3.161,8.849,4.296c6.705,2.439,14.402,5.242,25.625,18.435c7.79,9.156,14.833,12.723,21.599,16.148
		c5.963,3.02,11.734,5.94,17.688,12.157l59.38,22.018L1026.772,1020.568L1026.772,1020.568z M870.097,962.044
		c-0.1-0.148-0.202-0.234-0.262-0.089l-0.004-0.001C869.783,962.085,869.923,962.085,870.097,962.044z"/>
	<path fill="#F6B40E" d="M1030.334,1020.064l-122.259-113.39c0,0-2.223-2.221-3.703-0.737c-1.469,1.477,0.74,3.688,0.74,3.688
		l113.401,122.271L1030.334,1020.064z M1009.303,964.948c-8.034-21.617-25.987-27.905-32.147-47.628
		c-6.17-19.733-21.068-26.153-26.547-32.54c-5.491-6.398-2.281-12.904-4.883-13.057c-2.615-0.156-4.954,7.662,0.953,17.536
		c5.898,9.87,15.174,9.68,22.919,33.685c7.75,24.006,21.37,24.698,27.371,47.033L1009.303,964.948L1009.303,964.948z"/>
	<path fill="#85340A" d="M1028.666,1021.852l-43.259-40.119l-2.624,0.701c-0.426-1.584-0.894-3.056-1.397-4.432l-68.01-63.076
		l106.93,115.297l-3.585,3.335L903.379,911.35l-0.001,0.001c-0.011-0.01-3.933-3.928-0.741-7.149l0.009-0.009
		c3.211-3.209,7.149,0.73,7.161,0.741l-0.001,0.001l62.48,57.948c-0.697-0.835-1.407-1.658-2.12-2.487
		c-5.25-6.113-10.714-12.475-14.716-24.879c-4.918-15.243-10.446-20.308-15.256-24.716c-2.731-2.502-5.258-4.817-7.435-8.462
		c-3.262-5.454-4.226-10.422-4.013-13.999c0.09-1.517,0.393-2.829,0.826-3.862v-0.01c0.538-1.284,1.333-2.25,2.259-2.805h0.009
		c0.689-0.41,1.436-0.605,2.208-0.559c3.24,0.191,3.375,2.211,3.575,5.324c0.138,2.195,0.353,5.476,3.022,8.586
		c1.32,1.54,3.401,3.201,5.792,5.107c6.998,5.582,16.505,13.167,21.236,28.297c2.92,9.351,8.784,15.662,14.866,22.208
		c6.407,6.895,13.05,14.044,17.231,25.294l-4.581,1.705c-3.833-10.318-10.146-17.111-16.236-23.665
		c-6.47-6.963-12.708-13.676-15.959-24.084c-4.282-13.697-13.109-20.741-19.605-25.923c-2.586-2.063-4.834-3.855-6.465-5.758
		c-1.042-1.215-1.817-2.425-2.394-3.598c0.531,1.619,1.318,3.376,2.426,5.228c1.825,3.056,4.088,5.13,6.534,7.37
		c5.26,4.821,11.302,10.359,16.616,26.825c3.695,11.454,8.838,17.441,13.779,23.192c4.355,5.071,8.566,9.974,11.688,17.994
		l46.425,43.059L1028.666,1021.852L1028.666,1021.852z M906.297,907.852c-0.033-0.169-0.089-0.288-0.191-0.199
		C905.997,907.764,906.121,907.822,906.297,907.852z"/>
	<path fill="#85340A" d="M964.757,1036.525c-22.134,1.107-31.934,13.654-52.107,11.185c15.95,5.419,28.316-7.628,51.877-6.89
		L964.757,1036.525z M1022.831,1017.821l-104.09,47.642l107.29-39.916L1022.831,1017.821L1022.831,1017.821z"/>
	<path fill="#85340A" d="M965.27,1012.873c-20.879-7.438-34.74,0.408-52.43-9.599c12.665,11.103,29.08,3.787,50.565,13.489
		L965.27,1012.873z M1026.077,1017.827l-114.392,4.179l114.406,4.179L1026.077,1017.827z"/>
	<path fill="#85340A" d="M974.783,991.236c-16.438-14.861-32.243-12.916-44.766-28.923c7.462,15.098,25.429,14.622,41.566,31.799
		L974.783,991.236z M1029.073,1019.087l-107.291-39.92l104.092,47.641l3.198-7.722V1019.087z"/>
	<path fill="#85340A" d="M991.853,974.881c-9.492-20.016-24.83-24.279-30.272-43.856c1.097,16.809,17.879,23.24,26.212,45.29
		L991.853,974.881z M1031.354,1021.388l-83.849-77.936l77.95,83.842L1031.354,1021.388L1031.354,1021.388z"/>
	<path fill="#F6B40E" d="M1032.149,1022.779l-69.556-151.553c0,0-1.194-2.899-3.13-2.099c-1.934,0.802-0.738,3.688-0.738,3.688
		l57.979,156.363L1032.149,1022.779z M1033.821,963.811c0.846-23.052-13.336-35.727-11.484-56.309
		c1.849-20.579-9.455-32.218-12.069-40.228c-2.627-7.998,2.828-12.784,0.479-13.928c-2.354-1.137-7.51,5.179-5.825,16.565
		c1.681,11.377,10.313,14.756,8.281,39.894c-2.029,25.141,10.292,31.002,7.295,53.932L1033.821,963.811L1033.821,963.811z"/>
	<path fill="#85340A" d="M1029.925,1023.798l-24.611-53.622l-2.688-0.351c0.213-1.627,0.344-3.162,0.403-4.627l-38.718-84.366
		l54.69,147.498l-4.599,1.706l-57.978-156.363l0.004-0.001c-0.223-0.58-1.844-5.167,2.104-6.802c4.184-1.73,6.326,3.438,6.331,3.451
		l35.55,77.458c-0.329-1.053-0.674-2.098-1.018-3.148c-2.514-7.661-5.129-15.634-4.083-28.614
		c1.288-15.968-1.879-22.767-4.638-28.69c-1.559-3.342-3-6.436-3.624-10.657c-0.926-6.258,0.075-11.204,1.632-14.429
		c0.664-1.374,1.45-2.479,2.255-3.28c0.999-0.992,2.099-1.587,3.164-1.747v-0.001c0.786-0.118,1.552-0.008,2.262,0.333
		c2.931,1.424,2.279,3.342,1.274,6.292c-0.706,2.083-1.764,5.195-0.487,9.083c0.632,1.94,1.921,4.276,3.404,6.963
		c4.321,7.831,10.186,18.463,8.77,34.233c-0.877,9.766,2.126,17.843,5.243,26.223c3.285,8.828,6.69,17.983,6.25,29.96l-4.886-0.172
		c0.403-11.018-2.827-19.706-5.944-28.082c-3.313-8.907-6.506-17.496-5.531-28.352c1.281-14.274-4.175-24.167-8.194-31.451
		c-1.6-2.902-2.993-5.425-3.77-7.808c-0.502-1.527-0.755-2.945-0.837-4.253c-0.129,1.704-0.074,3.637,0.245,5.779
		c0.516,3.493,1.816,6.283,3.22,9.295c3.015,6.466,6.473,13.891,5.079,31.146c-0.97,12.016,1.491,19.509,3.854,26.714
		c2.083,6.353,4.099,12.494,3.91,21.113l26.407,57.539l-4.446,2.031L1029.925,1023.798z M960.32,872.142
		c0,0,0.116-0.264,0.168-0.481c-0.154-0.101-0.247-0.206-0.097-0.267l-1.858-4.524 M960.488,871.659
		c0.042-0.177,0.042-0.323-0.097-0.265 M964.863,870.321l-2.272,0.911l-1.645,0.659l-0.626,0.251"/>
	<path fill="#F6B40E" d="M1032.798,1025.984l-6.277-166.64c0,0,0.013-3.128-2.09-3.142c-2.09-0.001-2.09,3.142-2.09,3.142
		l-6.264,166.64H1032.798z M1056.897,972.136c9.61-20.959,1.36-38.103,10.944-56.401c9.586-18.311,3.593-33.387,4.238-41.791
		c0.634-8.405,7.508-10.732,5.78-12.688c-1.746-1.946-8.919,1.922-11.724,13.083c-2.806,11.146,3.878,17.582-7.615,40.024
		c-11.496,22.453-2.354,32.575-13.906,52.604l12.28,5.169H1056.897z"/>
	<path fill="#85340A" d="M1030.348,1026.063l-2.221-58.96l-2.359-1.354c0.821-1.425,1.535-2.8,2.152-4.132l-3.496-92.777
		l-5.913,157.227l-4.886-0.173l6.263-166.552h-0.008c0-0.016-0.004-5.596,4.543-5.596l0.009,0.01c4.555,0.03,4.533,5.57,4.533,5.586
		h-0.008l3.209,85.153c0.096-1.081,0.179-2.162,0.262-3.249c0.61-8.031,1.245-16.391,7.188-28.001
		c7.297-14.248,6.972-21.749,6.688-28.28c-0.159-3.695-0.309-7.115,0.725-11.229c1.537-6.116,4.344-10.297,7.013-12.688
		c1.146-1.024,2.302-1.753,3.354-2.188c1.311-0.541,2.559-0.67,3.604-0.408c0.766,0.191,1.431,0.583,1.95,1.168l0.01,0.01
		c2.152,2.433,0.821,3.951-1.237,6.291c-1.451,1.65-3.622,4.121-3.929,8.2c-0.156,2.05,0.141,4.693,0.48,7.736
		c0.999,8.891,2.353,20.963-4.997,35.002c-4.543,8.678-4.861,17.286-5.188,26.218c-0.343,9.41-0.703,19.17-5.696,30.068
		l-4.446-2.029c4.59-10.014,4.931-19.278,5.256-28.212c0.348-9.495,0.686-18.649,5.742-28.307
		c6.651-12.704,5.391-23.934,4.463-32.203c-0.37-3.293-0.69-6.154-0.502-8.637c0.122-1.595,0.427-2.993,0.844-4.228
		c-0.764,1.516-1.443,3.311-1.968,5.394c-0.866,3.452-0.733,6.517-0.591,9.83c0.31,7.127,0.665,15.314-7.224,30.714
		c-5.48,10.706-6.08,18.578-6.653,26.139c-0.506,6.662-0.996,13.104-4.467,20.988l2.386,63.294L1030.348,1026.063L1030.348,1026.063
		z M1024.418,858.93c0.102-0.147,0.149-0.281,0.006-0.287v0.012C1024.267,858.654,1024.313,858.783,1024.418,858.93z"/>
	<path fill="#F6B40E" d="M1032.149,1029.188l57.979-156.35c0,0,1.206-2.901-0.729-3.702c-1.934-0.8-3.129,2.099-3.129,2.099
		l-69.567,151.553L1032.149,1029.188z M1075.025,988.674c16.89-15.707,15.829-34.688,31.693-47.938
		c15.861-13.238,16.104-29.461,19.911-36.981c3.808-7.509,11.052-7.041,10.196-9.5c-0.863-2.474-8.98-1.648-15.843,7.59
		c-6.851,9.229-3.139,17.727-22.349,34.069c-19.205,16.34-14.644,29.184-32.979,43.285L1075.025,988.674L1075.025,988.674z"/>
	<path fill="#85340A" d="M1029.845,1028.329l20.519-55.334l-1.651-2.139c1.297-0.999,2.475-1.991,3.55-2.98l32.24-86.942
		l-65.58,142.863l-4.446-2.03l69.519-151.446c0.005-0.013,2.149-5.177,6.329-3.453h0.01c3.944,1.635,2.309,6.229,2.084,6.808
		l0.006,0.002l-29.66,79.981c0.504-0.962,0.992-1.928,1.484-2.901c3.638-7.184,7.425-14.662,17.356-23.112
		c12.194-10.375,14.764-17.432,16.998-23.573c1.263-3.47,2.433-6.68,4.967-10.094c3.776-5.084,7.987-7.875,11.377-9.053
		l-0.003-0.004c1.434-0.497,2.768-0.722,3.902-0.719c1.413,0.005,2.614,0.367,3.476,1.006c0.64,0.472,1.106,1.093,1.362,1.831
		l0.003-0.001c1.066,3.071-0.747,3.962-3.547,5.341h-0.009c-1.971,0.969-4.916,2.418-6.768,6.067c-0.937,1.851-1.67,4.39-2.512,7.31
		c-2.483,8.612-5.859,20.309-18.01,30.447c-7.539,6.297-11.124,14.127-14.842,22.251c-3.922,8.568-7.987,17.449-16.756,25.605
		l-3.336-3.585c8.074-7.509,11.931-15.929,15.646-24.051c3.959-8.652,7.779-16.99,16.143-23.978
		c11.025-9.2,14.155-20.044,16.46-28.032c0.921-3.193,1.723-5.971,2.835-8.172c0.738-1.456,1.58-2.651,2.463-3.643
		c-1.31,1.119-2.65,2.535-3.957,4.292c-2.108,2.843-3.161,5.729-4.296,8.849c-2.438,6.701-5.242,14.401-18.437,25.625
		c-9.156,7.791-12.721,14.833-16.147,21.598c-3.019,5.966-5.941,11.737-12.157,17.691l-22.018,59.377l-4.599-1.705V1028.329z
		 M1088.368,871.654c0.148-0.099,0.233-0.202,0.089-0.263l0.001-0.002C1088.326,871.34,1088.326,871.481,1088.368,871.654
		L1088.368,871.654z"/>
	<path fill="#F6B40E" d="M1030.348,1031.891l113.39-122.259c0,0,2.221-2.223,0.739-3.701c-1.479-1.471-3.689,0.738-3.689,0.738
		l-122.271,113.4L1030.348,1031.891z M1085.465,1010.86c21.615-8.034,27.903-25.987,47.626-32.147
		c19.733-6.169,26.152-21.068,32.539-26.546c6.401-5.493,12.907-2.283,13.059-4.883c0.156-2.615-7.662-4.952-17.534,0.954
		c-9.871,5.896-9.681,15.171-33.687,22.917c-24.006,7.75-24.696,21.372-47.033,27.371L1085.465,1010.86L1085.465,1010.86z"/>
	<path fill="#85340A" d="M1028.561,1030.222l40.118-43.257l-0.7-2.622c1.582-0.425,3.053-0.892,4.428-1.396l63.085-68.019
		l-115.3,106.939l-3.334-3.585l122.203-113.345l-0.003-0.001c0.012-0.01,3.93-3.928,7.148-0.74h0.011
		c3.215,3.216-0.729,7.16-0.741,7.17l-0.002-0.001l-57.939,62.473c0.83-0.696,1.651-1.402,2.475-2.11
		c6.113-5.25,12.477-10.716,24.883-14.718c15.243-4.919,20.312-10.448,24.719-15.258c2.503-2.731,4.817-5.256,8.461-7.433
		c5.445-3.262,10.409-4.227,13.987-4.016c1.522,0.09,2.835,0.393,3.869,0.824c1.298,0.543,2.267,1.334,2.82,2.262v0.01
		c0.41,0.688,0.605,1.434,0.558,2.206c-0.195,3.24-2.213,3.375-5.323,3.575c-2.193,0.141-5.474,0.353-8.588,3.025
		c-1.541,1.321-3.2,3.4-5.106,5.792c-5.582,6.998-13.166,16.506-28.295,21.236c-9.352,2.92-15.665,8.784-22.211,14.866
		c-6.893,6.408-14.046,13.05-25.295,17.23l-1.706-4.58c10.319-3.834,17.115-10.147,23.666-16.237
		c6.966-6.469,13.678-12.707,24.089-15.957c13.696-4.283,20.737-13.11,25.92-19.606c2.063-2.587,3.854-4.834,5.757-6.464
		c1.22-1.049,2.435-1.824,3.611-2.402c-1.623,0.533-3.386,1.322-5.242,2.433c-3.053,1.824-5.126,4.087-7.367,6.533
		c-4.821,5.26-10.36,11.303-26.828,16.619c-11.456,3.695-17.443,8.837-23.196,13.778c-5.069,4.354-9.973,8.567-17.992,11.689
		l-43.053,46.421L1028.561,1030.222L1028.561,1030.222z M1142.558,907.862c0.175-0.03,0.299-0.088,0.188-0.197l0.006-0.005
		C1142.642,907.557,1142.588,907.685,1142.558,907.862z"/>
	<path fill="#85340A" d="M1013.887,966.312c-1.11-22.133-13.657-31.933-11.186-52.106c-5.42,15.95,7.626,28.314,6.889,51.877
		L1013.887,966.312z M1032.593,1024.386l-47.644-104.09l39.916,107.288L1032.593,1024.386L1032.593,1024.386z"/>
	<path fill="#85340A" d="M1037.539,966.826c7.436-20.879-0.408-34.74,9.598-52.43c-11.102,12.665-3.787,29.079-13.489,50.564
		L1037.539,966.826z M1032.585,1027.633l-4.179-114.392l-4.179,114.405L1032.585,1027.633L1032.585,1027.633z"/>
	<path fill="#85340A" d="M1059.179,976.339c14.861-16.438,12.916-32.242,28.924-44.766c-15.099,7.462-14.623,25.428-31.799,41.566
		L1059.179,976.339z M1031.326,1030.63l39.921-107.291l-47.643,104.093L1031.326,1030.63L1031.326,1030.63z"/>
	<path fill="#85340A" d="M1075.533,993.409c20.017-9.491,24.277-24.83,43.854-30.271c-16.807,1.097-23.24,17.879-45.288,26.212
		L1075.533,993.409z M1029.027,1032.907l77.937-83.844l-83.843,77.947L1029.027,1032.907z"/>
	<path fill="#F6B40E" d="M1027.633,1033.705l151.552-69.556c0,0,2.899-1.193,2.101-3.128c-0.801-1.935-3.688-0.74-3.688-0.74
		l-156.363,57.979L1027.633,1033.705z M1086.602,1035.377c23.051,0.846,35.726-13.336,56.307-11.484
		c20.579,1.85,32.22-9.455,40.228-12.07c7.999-2.625,12.784,2.83,13.929,0.479c1.138-2.354-5.179-7.51-16.564-5.827
		c-11.378,1.682-14.758,10.313-39.896,8.283c-25.141-2.029-31.002,10.292-53.932,7.295L1086.602,1035.377L1086.602,1035.377z"/>
	<path fill="#85340A" d="M1026.613,1031.48l53.621-24.61l0.351-2.689c1.626,0.214,3.163,0.343,4.627,0.404l84.36-38.716
		l-147.49,54.688l-1.706-4.599l156.363-57.978l0.001,0.004c0.58-0.222,5.167-1.844,6.802,2.105c1.727,4.181-3.44,6.324-3.452,6.33
		l-77.457,35.548c1.053-0.33,2.097-0.672,3.146-1.017c7.661-2.514,15.635-5.129,28.614-4.083
		c15.967,1.291,22.766-1.879,28.688-4.638c3.346-1.558,6.441-3.001,10.66-3.624c6.261-0.925,11.21,0.078,14.436,1.636
		c1.37,0.664,2.475,1.449,3.274,2.252c0.992,1.003,1.589,2.106,1.746,3.171c0.118,0.785,0.007,1.547-0.334,2.254
		c-1.425,2.929-3.342,2.277-6.29,1.276c-2.082-0.708-5.192-1.767-9.084-0.489c-1.938,0.632-4.277,1.923-6.964,3.404
		c-7.833,4.322-18.463,10.185-34.232,8.769c-9.767-0.877-17.844,2.126-26.223,5.243c-8.828,3.285-17.981,6.69-29.959,6.25
		l0.172-4.886c11.02,0.403,19.705-2.827,28.083-5.944c8.905-3.313,17.494-6.507,28.35-5.532c14.272,1.282,24.166-4.172,31.45-8.193
		c2.902-1.6,5.427-2.991,7.809-3.77c1.53-0.501,2.949-0.752,4.258-0.836c-1.705-0.129-3.637-0.074-5.781,0.243
		c-3.494,0.515-6.285,1.815-9.299,3.22c-6.466,3.015-13.891,6.474-31.145,5.079c-12.016-0.97-19.509,1.491-26.714,3.854
		c-6.352,2.082-12.494,4.099-21.111,3.91l-57.54,26.408L1026.613,1031.48L1026.613,1031.48z M1178.27,961.876
		c0,0,0.264,0.117,0.483,0.169c0.1-0.154,0.204-0.246,0.265-0.097l4.524-1.858 M1178.753,962.045
		c0.176,0.043,0.323,0.043,0.265-0.097 M1180.09,966.419l-0.91-2.272l-0.658-1.644l-0.252-0.627"/>
	<path fill="#F6B40E" d="M1024.428,1034.354l166.639-6.279c0,0,3.13,0.009,3.143-2.09c0-2.09-3.143-2.09-3.143-2.09l-166.639-6.265
		V1034.354z M1078.276,1058.45c20.959,9.613,38.103,1.365,56.401,10.948c18.312,9.586,33.389,3.593,41.791,4.238
		c8.404,0.632,10.733,7.509,12.688,5.779c1.947-1.746-1.922-8.919-13.081-11.723c-11.147-2.806-17.584,3.878-40.026-7.616
		c-22.451-11.495-32.575-2.353-52.604-13.906L1078.276,1058.45L1078.276,1058.45z"/>
	<path fill="#85340A" d="M1024.349,1031.903l58.964-2.221l1.355-2.357c1.423,0.821,2.795,1.534,4.127,2.15l92.8-3.497
		l-157.247-5.911l0.172-4.886l166.553,6.262v-0.008c0.017,0,5.596,0,5.596,4.545c0,4.567-5.578,4.542-5.594,4.542v-0.008
		l-85.165,3.21c1.087,0.097,2.17,0.178,3.262,0.261c8.031,0.609,16.392,1.244,27.997,7.185c14.252,7.301,21.748,6.975,28.277,6.691
		c3.696-0.159,7.117-0.308,11.231,0.728c6.125,1.537,10.309,4.349,12.695,7.021h0.01c1.009,1.13,1.734,2.282,2.173,3.347
		c0.538,1.308,0.668,2.555,0.404,3.598h-0.001c-0.194,0.771-0.585,1.431-1.165,1.951l-0.011,0.009
		c-2.43,2.15-3.949,0.821-6.29-1.235l0.005-0.005c-1.65-1.45-4.118-3.613-8.205-3.92c-2.047-0.156-4.694,0.14-7.738,0.479
		c-8.893,0.998-20.962,2.353-35.003-4.997c-8.677-4.543-17.282-4.861-26.213-5.188c-9.411-0.345-19.17-0.704-30.069-5.701
		l2.029-4.445c10.016,4.59,19.277,4.933,28.213,5.26c9.492,0.347,18.646,0.686,28.302,5.742c12.704,6.65,23.934,5.391,32.203,4.462
		c3.292-0.367,6.158-0.688,8.64-0.498c1.599,0.118,3.001,0.428,4.238,0.848c-1.52-0.766-3.315-1.45-5.405-1.974
		c-3.453-0.869-6.519-0.736-9.833-0.594c-7.125,0.311-15.309,0.665-30.711-7.226c-10.704-5.479-18.576-6.077-26.136-6.65
		c-6.665-0.504-13.107-0.994-20.992-4.467l-63.297,2.387L1024.349,1031.903L1024.349,1031.903z M1191.478,1025.98
		c0.149,0.109,0.283,0.163,0.283,0C1191.761,1025.819,1191.627,1025.873,1191.478,1025.98z"/>
	<path fill="#F6B40E" d="M1021.223,1033.705l156.35,57.979c0,0,2.898,1.207,3.701-0.728c0.8-1.934-2.1-3.129-2.1-3.129
		l-151.553-69.566L1021.223,1033.705z M1061.738,1076.581c15.707,16.891,34.687,15.831,47.937,31.693
		c13.239,15.862,29.461,16.105,36.981,19.911c7.51,3.808,7.04,11.055,9.5,10.196c2.475-0.862,1.649-8.979-7.59-15.843
		c-9.229-6.851-17.728-3.139-34.069-22.347c-16.339-19.208-29.184-14.646-43.283-32.983L1061.738,1076.581L1061.738,1076.581z"/>
	<path fill="#85340A" d="M1022.083,1031.4l55.335,20.52l2.139-1.65c0.996,1.296,1.988,2.473,2.977,3.547l86.935,32.236
		l-142.854-65.576l2.03-4.445l151.446,69.52c0.013,0.005,5.177,2.149,3.452,6.329v0.009c-1.637,3.946-6.23,2.309-6.81,2.083
		l-0.002,0.004l-79.994-29.662c0.967,0.506,1.936,0.996,2.911,1.489c7.188,3.637,14.666,7.424,23.114,17.357
		c10.376,12.193,17.43,14.763,23.57,16.998c3.472,1.262,6.683,2.434,10.096,4.966c5.092,3.783,7.884,7.991,9.058,11.376v0.01
		c0.498,1.435,0.722,2.765,0.718,3.892c-0.004,1.414-0.367,2.616-1.005,3.476c-0.473,0.639-1.094,1.105-1.832,1.36l0.002,0.004
		c-3.064,1.068-3.961-0.744-5.337-3.546l-0.003,0.001c-0.973-1.975-2.425-4.93-6.069-6.779c-1.847-0.934-4.388-1.667-7.306-2.509
		c-8.613-2.483-20.309-5.86-30.45-18.013c-6.296-7.534-14.125-11.121-22.248-14.84c-8.567-3.921-17.45-7.988-25.607-16.758
		l3.585-3.334c7.511,8.073,15.934,11.931,24.053,15.647c8.65,3.958,16.988,7.778,23.975,16.14
		c9.203,11.028,20.049,14.157,28.034,16.462c3.195,0.921,5.973,1.722,8.17,2.834c1.446,0.734,2.635,1.566,3.621,2.441
		c-1.116-1.304-2.524-2.638-4.271-3.936c-2.842-2.109-5.729-3.16-8.85-4.296c-6.7-2.44-14.399-5.243-25.622-18.434
		c-7.79-9.158-14.833-12.727-21.601-16.15c-5.966-3.021-11.736-5.942-17.691-12.158l-59.374-22.017L1022.083,1031.4L1022.083,1031.4
		z M1178.758,1089.924c0.1,0.148,0.202,0.234,0.263,0.089l0.003,0.002C1179.072,1089.883,1178.932,1089.883,1178.758,1089.924
		L1178.758,1089.924z"/>
	<path fill="#F6B40E" d="M1018.521,1031.903l122.259,113.393c0,0,2.223,2.222,3.702,0.739c1.468-1.479-0.74-3.689-0.74-3.689
		l-113.4-122.272L1018.521,1031.903z M1039.552,1087.021c8.034,21.617,25.987,27.906,32.147,47.625
		c6.17,19.734,21.067,26.155,26.546,32.543c5.492,6.397,2.282,12.905,4.883,13.059c2.618,0.155,4.955-7.662-0.954-17.536
		c-5.896-9.871-15.172-9.68-22.917-33.684c-7.749-24.008-21.37-24.699-27.371-47.032L1039.552,1087.021z"/>
	<path fill="#85340A" d="M1020.19,1030.116l43.255,40.117l2.626-0.701c0.426,1.585,0.895,3.057,1.397,4.434l68.016,63.08
		l-106.938-115.299l3.585-3.334l113.343,122.202l0.002-0.001c0.012,0.012,3.932,3.936,0.741,7.149l-0.011,0.01
		c-3.211,3.205-7.149-0.73-7.161-0.742l0.003-0.001l-62.476-57.945c0.696,0.832,1.404,1.656,2.114,2.482
		c5.249,6.113,10.716,12.477,14.718,24.883c4.917,15.24,10.445,20.308,15.255,24.715c2.73,2.503,5.26,4.818,7.436,8.465
		c3.26,5.444,4.225,10.408,4.015,13.986c-0.091,1.519-0.394,2.831-0.827,3.868c-0.542,1.299-1.333,2.268-2.262,2.821
		c-0.683,0.408-1.433,0.604-2.214,0.557c-3.241-0.189-3.378-2.207-3.576-5.324c-0.141-2.193-0.353-5.475-3.022-8.585
		c-1.319-1.539-3.398-3.196-5.79-5.105c-6.998-5.582-16.509-13.168-21.238-28.297c-2.92-9.354-8.784-15.667-14.867-22.213
		c-6.407-6.896-13.05-14.046-17.229-25.296l4.58-1.705c3.834,10.319,10.146,17.114,16.234,23.666
		c6.472,6.966,12.709,13.679,15.959,24.09c4.283,13.697,13.111,20.74,19.608,25.923c2.586,2.062,4.833,3.857,6.463,5.756
		c1.049,1.222,1.824,2.436,2.401,3.615c-0.531-1.626-1.32-3.389-2.433-5.244c-1.825-3.059-4.091-5.135-6.535-7.375
		c-5.26-4.819-11.305-10.358-16.616-26.822c-3.694-11.456-8.837-17.442-13.778-23.196c-4.355-5.069-8.566-9.974-11.688-17.992
		l-46.423-43.056L1020.19,1030.116L1020.19,1030.116z M1142.558,1144.116c0.031,0.168,0.089,0.287,0.188,0.196
		C1142.856,1144.203,1142.732,1144.146,1142.558,1144.116z"/>
	<path fill="#85340A" d="M1084.102,1015.442c22.133-1.112,31.933-13.657,52.106-11.186c-15.949-5.42-28.314,7.629-51.878,6.889
		L1084.102,1015.442z M1026.029,1034.146l104.088-47.64l-107.288,39.916l3.2,7.727V1034.146z"/>
	<path fill="#85340A" d="M1083.585,1039.096c20.879,7.435,34.74-0.408,52.43,9.597c-12.665-11.103-29.079-3.785-50.564-13.488
		L1083.585,1039.096z M1022.776,1034.141l114.394-4.179l-114.405-4.179L1022.776,1034.141L1022.776,1034.141z"/>
	<path fill="#85340A" d="M1074.077,1060.734c16.437,14.858,32.241,12.916,44.765,28.923c-7.463-15.099-25.429-14.622-41.566-31.799
		L1074.077,1060.734z M1019.787,1032.883l107.292,39.919l-104.093-47.642L1019.787,1032.883L1019.787,1032.883z"/>
	<path fill="#85340A" d="M1057.006,1077.09c9.494,20.016,24.83,24.281,30.271,43.856c-1.097-16.808-17.879-23.241-26.212-45.29
		L1057.006,1077.09z M1017.51,1030.583l83.843,77.937l-77.95-83.843L1017.51,1030.583z"/>
	<path fill="#F6B40E" d="M1092.34,1025.984c0,37.505-30.408,67.911-67.912,67.911c-37.504,0-67.912-30.406-67.912-67.911
		c0-37.504,30.408-67.909,67.912-67.909C1061.934,958.073,1092.34,988.48,1092.34,1025.984z"/>
	<path fill="#843511" d="M1047.576,1011.457c-4.631,0-9.074,2.018-11.686,6.193c5.229,4.704,16.758,5.209,24.602-0.533
		c-3.391-3.656-8.271-5.661-12.914-5.661H1047.576z M1047.506,1012.533c4.511-0.087,8.737,1.993,9.323,4.046
		c-5.229,5.753-13.573,5.252-18.802,1.071C1040.32,1013.999,1043.995,1012.591,1047.506,1012.533z"/>
	<path fill="#85340A" d="M1048.451,1008.238c-6.778,0-8.355,1.576-11.494,4.181c-3.128,2.612-4.693,2.087-5.216,2.612
		c-0.524,0.525,0,2.091,1.035,1.566c1.053-0.527,3.142-1.566,6.269-4.178c3.142-2.615,6.267-2.615,9.406-2.615
		c9.407,0,14.621,7.844,15.673,7.319C1065.164,1016.597,1058.896,1008.239,1048.451,1008.238L1048.451,1008.238z"/>
	<path fill="#85340A" d="M1067.257,1011.363c-12.01-10.446-27.158-12.009-35.525-4.177c-2.041,2.745-3.355,5.67-3.893,8.725
		c-1.051,5.957,0.813,12.379,5.468,18.967c-0.528,0-1.575,0.515-2.089,1.04c-4.155-7.93-5.623-16.08-4.262-23.828
		c0.356-2.018,0.92-4.008,1.635-5.943C1040.087,996.74,1055.761,995.689,1067.257,1011.363z"/>
	<path fill="#85340A" d="M1052.106,1016.582c0,2.592-2.103,4.69-4.694,4.69c-2.6,0-4.701-2.099-4.701-4.69
		c0-2.605,2.102-4.704,4.701-4.704C1050.005,1011.878,1052.106,1013.977,1052.106,1016.582z"/>
	<path fill="#85340A" d="M1061.006,1019.733c-8.881,6.793-17.765,6.268-22.993,3.13c-5.216-3.13-5.216-4.181-4.179-4.181
		c1.041,0,2.09,1.051,6.269,3.142C1044.28,1023.91,1050.549,1023.911,1061.006,1019.733z"/>
	<path fill="#85340A" d="M1014.045,1035.36c-2.236,0.419-3.821,2.399-3.821,4.669c0,2.589,2.136,4.654,4.726,4.654
		c1.539,0,2.949-0.727,3.819-1.98c1.814,1.359,4.324,1.505,5.66,1.529c0.202,0,0.477,0,0.609,0c1.337-0.024,3.844-0.17,5.658-1.529
		c0.885,1.254,2.28,1.98,3.82,1.98c2.588,0,4.74-2.065,4.74-4.654c0-2.27-1.59-4.25-3.82-4.669c1.253,0.442,2.051,1.659,2.051,2.986
		c0,1.729-1.396,3.124-3.127,3.124c-1.658,0-3.03-1.31-3.126-2.969c-0.513,1.014-2.533,4.045-6.493,4.201
		c-3.978-0.156-5.994-3.188-6.494-4.201c-0.111,1.659-1.47,2.969-3.141,2.969c-1.729,0-3.126-1.396-3.126-3.124
		C1011.979,1037.02,1012.79,1035.815,1014.045,1035.36L1014.045,1035.36z"/>
	<path fill="#85340A" d="M1019.144,1049.278c-5.224,0-7.292,4.728-11.994,7.867c2.612-1.04,4.666-3.103,8.318-5.192
		c3.667-2.091,6.781,0.453,8.871,0.453l0.07-0.002c2.091,0,5.205-2.542,8.868-0.451c3.656,2.09,5.792,4.152,8.404,5.191
		c-4.702-3.139-6.851-7.866-12.078-7.866c-1.041,0-3.103,0.563-5.194,1.599h-0.07
		C1022.249,1049.841,1020.182,1049.278,1019.144,1049.278L1019.144,1049.278z"/>
	<path fill="#85340A" d="M1017.382,1055.463c-2.063,0.1-4.787,0.503-8.7,1.686c9.406-2.088,11.472,1.063,15.661,1.063h0.071
		c4.177,0,6.254-3.15,15.661-1.063c-10.445-3.141-12.522-1.073-15.661-1.073h-0.071
		C1022.372,1056.075,1020.821,1055.312,1017.382,1055.463L1017.382,1055.463z"/>
	<path fill="#85340A" d="M1009.146,1057.078c-0.608,0.014-1.265,0.014-1.98,0.071c10.965,1.052,5.691,7.344,17.189,7.344h0.07
		c11.496,0,6.292-6.292,17.258-7.344c-11.479-1.038-7.854,5.729-17.258,5.729h-0.07
		C1015.532,1062.879,1018.242,1056.973,1009.146,1057.078L1009.146,1057.078z"/>
	<path fill="#85340A" d="M1033.83,1074.044c0-5.196-4.202-9.397-9.394-9.397c-5.191,0-9.405,4.202-9.405,9.397
		c1.038-4.347,4.929-7.427,9.405-7.427C1028.913,1066.617,1032.804,1069.697,1033.83,1074.044z"/>
	<path fill="#85340A" d="M982.209,1011.363c12.019-10.446,27.154-12.009,35.524-4.177c2.041,2.745,3.354,5.67,3.89,8.725
		c1.051,5.957-0.799,12.379-5.468,18.967c0.528,0,1.578,0.515,2.102,1.04c4.144-7.93,5.61-16.08,4.25-23.828
		c-0.357-2.018-0.919-4.008-1.635-5.943C1009.377,996.74,993.702,995.689,982.209,1011.363L982.209,1011.363z"/>
	<path fill="#85340A" d="M1001.015,1008.238c6.792,0,8.353,1.576,11.496,4.181c3.138,2.612,4.704,2.087,5.215,2.612
		c0.527,0.525,0,2.091-1.039,1.566c-1.039-0.527-3.138-1.566-6.266-4.178c-3.139-2.615-6.269-2.615-9.406-2.615
		c-9.393,0-14.622,7.844-15.663,7.319C984.301,1016.597,990.569,1008.239,1001.015,1008.238L1001.015,1008.238z"/>
	<path fill="#843511" d="M1000.684,1011.457c-4.63,0-9.07,2.018-11.687,6.193c5.229,4.704,16.761,5.209,24.603-0.533
		C1010.199,1013.461,1005.328,1011.457,1000.684,1011.457z M1000.612,1012.533c4.515-0.087,8.727,1.993,9.323,4.046
		c-5.228,5.753-13.574,5.252-18.802,1.071C993.425,1013.999,997.104,1012.591,1000.612,1012.533L1000.612,1012.533z"/>
	<path fill="#85340A" d="M1005.994,1016.582c0,2.592-2.104,4.69-4.691,4.69c-2.604,0-4.704-2.099-4.704-4.69
		c0-2.605,2.099-4.704,4.704-4.704C1003.89,1011.878,1005.992,1013.977,1005.994,1016.582z"/>
	<path fill="#85340A" d="M988.46,1019.733c8.884,6.793,17.765,6.268,22.994,3.13c5.217-3.13,5.217-4.181,4.176-4.181
		c-1.037,0-2.086,1.051-6.267,3.142C1005.187,1023.91,998.919,1023.911,988.46,1019.733z"/>
</g>
<g id="Layer_x0020_1_5_">
	<rect x="10.545" y="412.572" width="2041.991" height="408.911"/>
	<rect x="10.545" y="821.482" fill="#DD0000" width="2041.991" height="408.91"/>
	<rect x="10.545" y="1230.4" fill="#FFCE00" width="2041.991" height="408.912"/>
</g>
</svg>
